<svg xmlns="http://www.w3.org/2000/svg" width="24" height="25" viewBox="0 0 24 25" fill="none">
    <mask id="mask0_821_637" style="mask-type:alpha" maskUnits="userSpaceOnUse" x="0" y="0" width="24" height="25">
        <rect y="0.438477" width="24" height="24" fill="#D9D9D9"/>
    </mask>
    <g mask="url(#mask0_821_637)">
        <path d="M12.2 13.4385L11.3 14.3385C11.1167 14.5218 11.025 14.7551 11.025 15.0385C11.025 15.3218 11.1167 15.5551 11.3 15.7385C11.4833 15.9218 11.7167 16.0135 12 16.0135C12.2833 16.0135 12.5167 15.9218 12.7 15.7385L15.3 13.1385C15.5 12.9385 15.6 12.7051 15.6 12.4385C15.6 12.1718 15.5 11.9385 15.3 11.7385L12.7 9.13848C12.5167 8.95514 12.2833 8.86348 12 8.86348C11.7167 8.86348 11.4833 8.95514 11.3 9.13848C11.1167 9.32181 11.025 9.55514 11.025 9.83848C11.025 10.1218 11.1167 10.3551 11.3 10.5385L12.2 11.4385H9C8.71667 11.4385 8.47917 11.5343 8.2875 11.726C8.09583 11.9176 8 12.1551 8 12.4385C8 12.7218 8.09583 12.9593 8.2875 13.151C8.47917 13.3426 8.71667 13.4385 9 13.4385H12.2ZM12 22.4385C10.6167 22.4385 9.31667 22.176 8.1 21.651C6.88333 21.126 5.825 20.4135 4.925 19.5135C4.025 18.6135 3.3125 17.5551 2.7875 16.3385C2.2625 15.1218 2 13.8218 2 12.4385C2 11.0551 2.2625 9.75514 2.7875 8.53848C3.3125 7.32181 4.025 6.26348 4.925 5.36348C5.825 4.46348 6.88333 3.75098 8.1 3.22598C9.31667 2.70098 10.6167 2.43848 12 2.43848C13.3833 2.43848 14.6833 2.70098 15.9 3.22598C17.1167 3.75098 18.175 4.46348 19.075 5.36348C19.975 6.26348 20.6875 7.32181 21.2125 8.53848C21.7375 9.75514 22 11.0551 22 12.4385C22 13.8218 21.7375 15.1218 21.2125 16.3385C20.6875 17.5551 19.975 18.6135 19.075 19.5135C18.175 20.4135 17.1167 21.126 15.9 21.651C14.6833 22.176 13.3833 22.4385 12 22.4385ZM12 20.4385C14.2333 20.4385 16.125 19.6635 17.675 18.1135C19.225 16.5635 20 14.6718 20 12.4385C20 10.2051 19.225 8.31348 17.675 6.76348C16.125 5.21348 14.2333 4.43848 12 4.43848C9.76667 4.43848 7.875 5.21348 6.325 6.76348C4.775 8.31348 4 10.2051 4 12.4385C4 14.6718 4.775 16.5635 6.325 18.1135C7.875 19.6635 9.76667 20.4385 12 20.4385Z"
              fill="white"/>
    </g>
</svg>