<svg width="18" height="18" viewBox="0 0 18 18" fill="none" xmlns="http://www.w3.org/2000/svg">
    <rect x="1" y="1" width="16" height="16" rx="8" fill="black"/>
    <rect x="1" y="1" width="16" height="16" rx="8" stroke="white"/>
    <path d="M12.8594 12.1953L9.6625 9.00018L12.8594 5.82857C13.0196 5.64301 13.0109 5.36455 12.8395 5.18947C12.668 5.01439 12.3916 5.00171 12.2051 5.16037L8.99882 8.30845L5.84867 5.13684C5.66637 4.95439 5.37196 4.95439 5.18966 5.13684C5.10118 5.22519 5.05141 5.34547 5.05141 5.47094C5.05141 5.59641 5.10118 5.71668 5.18966 5.80504L8.33514 8.97195L5.13825 12.1389C5.04977 12.2272 5 12.3475 5 12.473C5 12.5984 5.04977 12.7187 5.13825 12.8071C5.22645 12.8951 5.34586 12.9442 5.47009 12.9435C5.59204 12.9443 5.70945 12.897 5.79726 12.8118L8.99882 9.63545L12.2051 12.8635C12.2933 12.9516 12.4127 13.0007 12.5369 13C12.6595 12.9995 12.777 12.9505 12.8641 12.8635C12.9519 12.7745 13.0009 12.6539 13 12.5284C12.9991 12.403 12.9485 12.2831 12.8594 12.1953Z" fill="white"/>
    </svg>
    