<svg xmlns="http://www.w3.org/2000/svg" width="20" height="16" viewBox="0 0 20 16" fill="#404EED">
    <path d="M8.10357 1.58716C7.94786 1.14797 7.79071 0.705147 7.78786 0.699349C7.71286 0.529034 7.53929 0.421772 7.35643 0.440615C7.24071 0.450037 4.50286 0.689203 2.74857 2.12057C1.83143 2.98012 0 8.0055 0 12.3503C0 12.4272 0.0192857 12.5018 0.0571429 12.5685C1.32214 14.8224 4.77071 15.4124 5.55643 15.4378C5.56143 15.4385 5.56571 15.4385 5.57 15.4385C5.70857 15.4385 5.83857 15.3711 5.92143 15.2573L6.77143 14.089C5.36714 13.8723 5.11357 13.5897 5.05429 13.5454C4.73714 13.3085 4.50286 12.9765 4.78714 12.5576C5.00571 12.2322 5.46429 12.1249 5.81571 12.3083C6.17571 12.4786 7.13929 13.0265 10 13.012C12.8407 13.0033 14.0879 12.3996 14.1057 12.3866C14.5829 12.1684 14.955 12.2583 15.1871 12.5815C15.4636 13.0215 15.2664 13.3193 14.9507 13.5556C14.8914 13.5998 14.7479 13.7237 13.2393 14.0861L14.0786 15.2566C14.1607 15.3711 14.2914 15.4378 14.43 15.4378C14.435 15.4378 14.4393 15.4378 14.4436 15.437C15.23 15.4117 18.6786 14.8217 19.9429 12.5678C19.9807 12.5011 20 12.4264 20 12.3496C20 8.0055 18.1686 2.98012 17.2286 2.10173C15.4971 0.689928 12.7593 0.450762 12.6436 0.440615C12.4607 0.424671 12.2871 0.529759 12.2121 0.699349C12.2093 0.705147 12.0564 1.15521 11.9086 1.58934C11.9086 1.58934 10.7436 1.41612 10 1.41612C9.25643 1.41612 8.10357 1.58716 8.10357 1.58716ZM7.14286 10.8378C6.35357 10.8378 5.71429 9.87171 5.71429 8.67879C5.71429 7.48586 6.35357 6.51977 7.14286 6.51977C7.935 6.40019 8.55429 7.48586 8.57143 8.67879C8.57143 9.87171 7.93214 10.8378 7.14286 10.8378ZM12.8571 10.8378C12.0679 10.8378 11.4286 9.86519 11.4286 8.66574C11.4286 7.46629 12.0679 6.49368 12.8571 6.49368C13.6464 6.49368 14.2857 7.46629 14.2857 8.66574C14.2857 9.86519 13.6464 10.8378 12.8571 10.8378Z"
          fill="#404EED"/>
</svg>