<svg width="88" height="146" viewBox="0 0 88 146" fill="none" xmlns="http://www.w3.org/2000/svg">
<g id="Group 1000001632">
<g id="Frame 1000001943">
<g id="Frame 1000001938">
<circle id="Ellipse 1153" cx="4" cy="44" r="3" fill="#C34AC3" fill-opacity="0.92"/>
<circle id="Ellipse 1155" cx="4" cy="60" r="3" fill="#C34AC3" fill-opacity="0.92"/>
<circle id="Ellipse 1156" cx="4" cy="76" r="3" fill="#C34AC3" fill-opacity="0.92"/>
<circle id="Ellipse 1157" cx="4" cy="92" r="3" fill="#C34AC3" fill-opacity="0.92"/>
<circle id="Ellipse 1154" cx="4" cy="108" r="3" fill="#C34AC3" fill-opacity="0.92"/>
</g>
<g id="Frame 1000001939">
<circle id="Ellipse 1153_2" cx="20" cy="44" r="3" fill="#C34AC3" fill-opacity="0.92"/>
<circle id="Ellipse 1155_2" cx="20" cy="60" r="3" fill="#C34AC3" fill-opacity="0.92"/>
<circle id="Ellipse 1156_2" cx="20" cy="76" r="3" fill="#C34AC3" fill-opacity="0.92"/>
<circle id="Ellipse 1157_2" cx="20" cy="92" r="3" fill="#C34AC3" fill-opacity="0.92"/>
<circle id="Ellipse 1154_2" cx="20" cy="108" r="3" fill="#C34AC3" fill-opacity="0.92"/>
</g>
<g id="Frame 1000001940">
<circle id="Ellipse 1153_3" cx="36" cy="44" r="3" fill="#C34AC3" fill-opacity="0.92"/>
<circle id="Ellipse 1155_3" cx="36" cy="60" r="3" fill="#C34AC3" fill-opacity="0.92"/>
<circle id="Ellipse 1156_3" cx="36" cy="76" r="3" fill="#C34AC3" fill-opacity="0.92"/>
<circle id="Ellipse 1157_3" cx="36" cy="92" r="3" fill="#C34AC3" fill-opacity="0.92"/>
<circle id="Ellipse 1154_3" cx="36" cy="108" r="3" fill="#C34AC3" fill-opacity="0.92"/>
</g>
<g id="Frame 1000001941">
<circle id="Ellipse 1153_4" cx="52" cy="44" r="3" fill="#C34AC3" fill-opacity="0.92"/>
<circle id="Ellipse 1155_4" cx="52" cy="60" r="3" fill="#C34AC3" fill-opacity="0.92"/>
<circle id="Ellipse 1156_4" cx="52" cy="76" r="3" fill="#C34AC3" fill-opacity="0.92"/>
<circle id="Ellipse 1157_4" cx="52" cy="92" r="3" fill="#C34AC3" fill-opacity="0.92"/>
<circle id="Ellipse 1154_4" cx="52" cy="108" r="3" fill="#C34AC3" fill-opacity="0.92"/>
</g>
<g id="Frame 1000001942">
<circle id="Ellipse 1153_5" cx="68" cy="44" r="3" fill="#C34AC3" fill-opacity="0.92"/>
<circle id="Ellipse 1155_5" cx="68" cy="60" r="3" fill="#C34AC3" fill-opacity="0.92"/>
<circle id="Ellipse 1156_5" cx="68" cy="76" r="3" fill="#C34AC3" fill-opacity="0.92"/>
<circle id="Ellipse 1157_5" cx="68" cy="92" r="3" fill="#C34AC3" fill-opacity="0.92"/>
<circle id="Ellipse 1154_5" cx="68" cy="108" r="3" fill="#C34AC3" fill-opacity="0.92"/>
</g>
<g id="Frame 1000001943_2">
<circle id="Ellipse 1153_6" cx="84" cy="44" r="3" fill="#C34AC3" fill-opacity="0.92"/>
<circle id="Ellipse 1155_6" cx="84" cy="60" r="3" fill="#C34AC3" fill-opacity="0.92"/>
<circle id="Ellipse 1156_6" cx="84" cy="76" r="3" fill="#C34AC3" fill-opacity="0.92"/>
<circle id="Ellipse 1157_6" cx="84" cy="92" r="3" fill="#C34AC3" fill-opacity="0.92"/>
<circle id="Ellipse 1154_6" cx="84" cy="108" r="3" fill="#C34AC3" fill-opacity="0.92"/>
</g>
</g>
</g>
</svg>
