<svg xmlns="http://www.w3.org/2000/svg" width="20" height="20" viewBox="0 0 20 20" fill="none">
    <path d="M3 16.0019H7.24C7.37161 16.0027 7.50207 15.9774 7.62391 15.9277C7.74574 15.8779 7.85656 15.8046 7.95 15.7119L14.87 8.78189L17.71 6.00189C17.8037 5.90893 17.8781 5.79833 17.9289 5.67647C17.9797 5.55461 18.0058 5.4239 18.0058 5.29189C18.0058 5.15988 17.9797 5.02917 17.9289 4.90732C17.8781 4.78546 17.8037 4.67486 17.71 4.58189L13.47 0.291892C13.377 0.198164 13.2664 0.123769 13.1446 0.0730007C13.0227 0.022232 12.892 -0.00390625 12.76 -0.00390625C12.628 -0.00390625 12.4973 0.022232 12.3754 0.0730007C12.2536 0.123769 12.143 0.198164 12.05 0.291892L9.23 3.12189L2.29 10.0519C2.19732 10.1453 2.12399 10.2561 2.07423 10.378C2.02446 10.4998 1.99924 10.6303 2 10.7619V15.0019C2 15.2671 2.10536 15.5215 2.29289 15.709C2.48043 15.8965 2.73478 16.0019 3 16.0019ZM12.76 2.41189L15.59 5.24189L14.17 6.66189L11.34 3.83189L12.76 2.41189ZM4 11.1719L9.93 5.24189L12.76 8.07189L6.83 14.0019H4V11.1719ZM19 18.0019H1C0.734784 18.0019 0.48043 18.1072 0.292893 18.2948C0.105357 18.4823 0 18.7367 0 19.0019C0 19.2671 0.105357 19.5215 0.292893 19.709C0.48043 19.8965 0.734784 20.0019 1 20.0019H19C19.2652 20.0019 19.5196 19.8965 19.7071 19.709C19.8946 19.5215 20 19.2671 20 19.0019C20 18.7367 19.8946 18.4823 19.7071 18.2948C19.5196 18.1072 19.2652 18.0019 19 18.0019Z" fill="black"/>
</svg>