<svg width="40" height="34" viewBox="0 0 40 34" fill="none" xmlns="http://www.w3.org/2000/svg">
<g id="Group">
<path id="Vector" fill-rule="evenodd" clip-rule="evenodd" d="M26.5605 22.288C29.2089 26.2388 32.266 29.7651 35.9062 31.8833C40.0084 34.2622 40.403 29.2985 39.7454 25.726C39.1731 22.5822 38.1279 19.5855 36.6882 16.8661C34.7011 13.1339 32.4367 11.8562 30.0016 16.2651C29.0454 18.0009 27.8012 20.2327 26.5605 22.288Z" fill="url(#paint0_linear_4259_49221)"/>
<path id="Vector_2" fill-rule="evenodd" clip-rule="evenodd" d="M24.5869 25.3813C25.2197 24.4692 25.8916 23.3975 26.5634 22.2963C22.4114 16.0675 19.3045 8.76275 16.6455 4.20674C13.7874 -0.714935 11.7114 -0.672905 8.96703 3.66456C6.18361 8.07347 3.5246 13.655 1.80762 18.9003C6.29381 7.62795 10.2574 13.5079 13.9758 19.93C15.0955 21.855 16.1869 23.8388 17.2675 25.4233C20.0261 29.4624 21.8782 29.2312 24.5869 25.3771V25.3813Z" fill="url(#paint1_linear_4259_49221)"/>
<path id="Vector_3" fill-rule="evenodd" clip-rule="evenodd" d="M9.18085 28.1021C9.24128 28.0222 9.30171 27.9423 9.35859 27.8625C9.41191 27.7868 9.46523 27.7112 9.51856 27.6355C9.66075 27.438 9.80294 27.2362 9.94158 27.0345C9.98068 26.9799 10.0162 26.9252 10.0553 26.8706C11.1289 25.2987 12.1242 23.6049 12.9738 21.9657C13.0094 21.8985 13.0414 21.8312 13.0769 21.764C13.1978 21.5286 13.3151 21.2975 13.4289 21.0621C13.4715 20.9738 13.5177 20.8856 13.5604 20.7973C13.7026 20.5031 13.8412 20.2131 13.9692 19.9273C11.136 12.7276 6.23745 6.98215 1.80103 18.8976C1.32824 20.3644 0.919439 21.806 0.606614 23.172C-0.712225 28.9763 -0.349633 37.7899 6.51117 31.1954C7.30035 30.4347 8.08952 29.5185 8.85736 28.5182C8.93912 28.4131 9.02088 28.3038 9.10264 28.1945C9.12752 28.1609 9.15241 28.1273 9.17729 28.0979L9.18085 28.1021Z" fill="url(#paint2_linear_4259_49221)"/>
<path id="Vector_4" d="M32.7978 11.0538C34.3586 11.0538 35.6238 9.55784 35.6238 7.71245C35.6238 5.86707 34.3586 4.37109 32.7978 4.37109C31.237 4.37109 29.9717 5.86707 29.9717 7.71245C29.9717 9.55784 31.237 11.0538 32.7978 11.0538Z" fill="url(#paint3_linear_4259_49221)"/>
</g>
<defs>
<linearGradient id="paint0_linear_4259_49221" x1="29.6888" y1="14.6092" x2="39.525" y2="31.9323" gradientUnits="userSpaceOnUse">
<stop stop-color="#9FC1FF"/>
<stop offset="0.54" stop-color="#5A50E4"/>
<stop offset="1" stop-color="#201A5B"/>
</linearGradient>
<linearGradient id="paint1_linear_4259_49221" x1="7.85793" y1="3.76122" x2="18.5879" y2="24.1797" gradientUnits="userSpaceOnUse">
<stop stop-color="#9FC1FF"/>
<stop offset="0.54" stop-color="#5A50E4"/>
<stop offset="1" stop-color="#201A5B"/>
</linearGradient>
<linearGradient id="paint2_linear_4259_49221" x1="6.98752" y1="9.51233" x2="6.98752" y2="41.9424" gradientUnits="userSpaceOnUse">
<stop stop-color="#362868"/>
<stop offset="0.35" stop-color="#B216D5"/>
<stop offset="1" stop-color="#F62C7D"/>
</linearGradient>
<linearGradient id="paint3_linear_4259_49221" x1="32.7978" y1="11.8146" x2="32.7978" y2="3.50949" gradientUnits="userSpaceOnUse">
<stop stop-color="#362868"/>
<stop offset="0.35" stop-color="#B216D5"/>
<stop offset="1" stop-color="#F62C7D"/>
</linearGradient>
</defs>
</svg>
