<svg width="195" height="156" viewBox="0 0 195 156" fill="none" xmlns="http://www.w3.org/2000/svg">
<rect x="0.5" width="194" height="155.2" fill="white"/>
<path fill-rule="evenodd" clip-rule="evenodd" d="M161.132 50.4414C164.132 50.4414 166.564 52.8734 166.564 55.8734C166.564 58.8734 164.132 61.3054 161.132 61.3054H130.092C133.092 61.3054 135.524 63.7374 135.524 66.7374C135.524 69.7374 133.092 72.1694 130.092 72.1694H147.164C150.164 72.1694 152.596 74.6014 152.596 77.6014C152.596 80.6014 150.164 83.0334 147.164 83.0334H139.269C135.486 83.0334 132.42 85.4654 132.42 88.4654C132.42 90.4654 133.972 92.2761 137.076 93.8974C140.076 93.8974 142.508 96.3294 142.508 99.3294C142.508 102.329 140.076 104.761 137.076 104.761H72.6679C69.6679 104.761 67.2359 102.329 67.2359 99.3294C67.2359 96.3294 69.6679 93.8974 72.6679 93.8974H42.4039C39.4039 93.8974 36.9719 91.4654 36.9719 88.4654C36.9719 85.4654 39.4039 83.0334 42.4039 83.0334H73.4439C76.4439 83.0334 78.8759 80.6014 78.8759 77.6014C78.8759 74.6014 76.4439 72.1694 73.4439 72.1694H54.0439C51.0439 72.1694 48.6119 69.7374 48.6119 66.7374C48.6119 63.7374 51.0439 61.3054 54.0439 61.3054H85.0839C82.0839 61.3054 79.6519 58.8734 79.6519 55.8734C79.6519 52.8734 82.0839 50.4414 85.0839 50.4414H161.132ZM161.132 72.1694C164.132 72.1694 166.564 74.6014 166.564 77.6014C166.564 80.6014 164.132 83.0334 161.132 83.0334C158.132 83.0334 155.7 80.6014 155.7 77.6014C155.7 74.6014 158.132 72.1694 161.132 72.1694Z" fill="#FFDAAC"/>
<path fill-rule="evenodd" clip-rule="evenodd" d="M119.749 49.6626L126.968 102.309L127.616 107.59C127.825 109.292 126.615 110.84 124.914 111.049L79.4709 116.629C77.7694 116.838 76.2207 115.628 76.0118 113.926L69.0156 56.9467C68.9111 56.0959 69.5161 55.3216 70.3668 55.2171C70.3722 55.2164 70.3776 55.2158 70.383 55.2152L74.1531 54.7923M77.2016 54.4503L80.7612 54.0511L77.2016 54.4503Z" fill="white"/>
<path d="M120.988 49.4928C120.894 48.8088 120.264 48.3304 119.58 48.4241C118.896 48.5179 118.417 49.1484 118.511 49.8324L120.988 49.4928ZM126.968 102.309L128.208 102.156C128.208 102.15 128.207 102.145 128.206 102.139L126.968 102.309ZM127.616 107.59L128.857 107.438L127.616 107.59ZM124.914 111.049L125.066 112.29L124.914 111.049ZM79.4709 116.629L79.6233 117.87L79.4709 116.629ZM76.0118 113.926L77.2525 113.774L76.0118 113.926ZM69.0156 56.9467L70.2562 56.7943L69.0156 56.9467ZM70.383 55.2152L70.5223 56.4574L70.383 55.2152ZM74.2924 56.0345C74.9785 55.9576 75.4722 55.339 75.3953 54.653C75.3183 53.9669 74.6998 53.4731 74.0137 53.5501L74.2924 56.0345ZM77.0623 53.2081C76.3762 53.2851 75.8824 53.9036 75.9594 54.5897C76.0364 55.2757 76.6549 55.7695 77.341 55.6925L77.0623 53.2081ZM80.9005 55.2933C81.5866 55.2163 82.0803 54.5978 82.0034 53.9117C81.9264 53.2257 81.3079 52.7319 80.6218 52.8088L80.9005 55.2933ZM118.511 49.8324L125.729 102.478L128.206 102.139L120.988 49.4928L118.511 49.8324ZM125.727 102.461L126.376 107.743L128.857 107.438L128.208 102.156L125.727 102.461ZM126.376 107.743C126.5 108.759 125.778 109.684 124.761 109.809L125.066 112.29C127.453 111.997 129.15 109.825 128.857 107.438L126.376 107.743ZM124.761 109.809L79.3186 115.388L79.6233 117.87L125.066 112.29L124.761 109.809ZM79.3186 115.388C78.3023 115.513 77.3773 114.79 77.2525 113.774L74.7711 114.079C75.0642 116.466 77.2365 118.163 79.6233 117.87L79.3186 115.388ZM77.2525 113.774L70.2562 56.7943L67.7749 57.099L74.7711 114.079L77.2525 113.774ZM70.2562 56.7943C70.2359 56.6288 70.3536 56.4781 70.5192 56.4578L70.2145 53.9764C68.6785 54.165 67.5863 55.5631 67.7749 57.099L70.2562 56.7943ZM70.5192 56.4578C70.5202 56.4577 70.5213 56.4575 70.5223 56.4574L70.2436 53.973C70.2339 53.9741 70.2242 53.9752 70.2145 53.9764L70.5192 56.4578ZM70.5223 56.4574L74.2924 56.0345L74.0137 53.5501L70.2436 53.973L70.5223 56.4574ZM77.341 55.6925L80.9005 55.2933L80.6218 52.8088L77.0623 53.2081L77.341 55.6925Z" fill="black"/>
<path fill-rule="evenodd" clip-rule="evenodd" d="M117.785 52.978L124.318 100.689L124.906 105.476C125.095 107.018 124.014 108.42 122.49 108.607L81.7948 113.603C80.2711 113.791 78.8823 112.692 78.693 111.15L72.4232 60.0867C72.2886 58.9903 73.0682 57.9924 74.1645 57.8578L78.7543 57.2943" fill="#FEBF66"/>
<path d="M84.5273 42.8008C84.5273 41.282 85.7586 40.0508 87.2773 40.0508H121.362C122.091 40.0508 122.791 40.3403 123.306 40.8556L133.213 50.7564C133.729 51.2722 134.019 51.9719 134.019 52.7016V99.9848C134.019 101.504 132.788 102.735 131.269 102.735H87.2773C85.7586 102.735 84.5273 101.504 84.5273 99.9848V42.8008Z" fill="white" stroke="black" stroke-width="2.5"/>
<path d="M122.077 40.6641V49.6635C122.077 50.9492 123.12 51.9915 124.405 51.9915H130.562" stroke="#2E2E2E" stroke-width="2.5" stroke-linecap="round" stroke-linejoin="round"/>
<path d="M92.0681 91.5682H112.244M92.0681 51.9922H112.244H92.0681ZM92.0681 61.3042H125.436H92.0681ZM92.0681 71.3922H125.436H92.0681ZM92.0681 81.4802H125.436H92.0681Z" stroke="#FE9C14" stroke-width="2.5" stroke-linecap="round" stroke-linejoin="round"/>
</svg>
