<svg width="194" height="155" viewBox="0 0 194 155" fill="none" xmlns="http://www.w3.org/2000/svg">
<rect width="194" height="155" fill="white"/>
<path fill-rule="evenodd" clip-rule="evenodd" d="M48.888 103.852H119.504C119.904 103.852 120.293 103.808 120.668 103.727C121.043 103.808 121.432 103.852 121.832 103.852H162.184C165.184 103.852 167.616 101.423 167.616 98.4266C167.616 95.4304 165.184 93.0016 162.184 93.0016H157.528C154.528 93.0016 152.096 90.5727 152.096 87.5766C152.096 84.5804 154.528 82.1516 157.528 82.1516H172.272C175.272 82.1516 177.704 79.7227 177.704 76.7266C177.704 73.7304 175.272 71.3016 172.272 71.3016H155.2C158.2 71.3016 160.632 68.8727 160.632 65.8766C160.632 62.8804 158.2 60.4516 155.2 60.4516H105.536C108.536 60.4516 110.968 58.0227 110.968 55.0266C110.968 52.0304 108.536 49.6016 105.536 49.6016H61.304C58.304 49.6016 55.872 52.0304 55.872 55.0266C55.872 58.0227 58.304 60.4516 61.304 60.4516H30.264C27.264 60.4516 24.832 62.8804 24.832 65.8766C24.832 68.8727 27.264 71.3016 30.264 71.3016H49.664C52.664 71.3016 55.096 73.7304 55.096 76.7266C55.096 79.7227 52.664 82.1516 49.664 82.1516H18.624C15.624 82.1516 13.192 84.5804 13.192 87.5766C13.192 90.5727 15.624 93.0016 18.624 93.0016H48.888C45.888 93.0016 43.456 95.4304 43.456 98.4266C43.456 101.423 45.888 103.852 48.888 103.852ZM175.376 103.852C178.376 103.852 180.808 101.423 180.808 98.4266C180.808 95.4304 178.376 93.0016 175.376 93.0016C172.376 93.0016 169.944 95.4304 169.944 98.4266C169.944 101.423 172.376 103.852 175.376 103.852Z" fill="#FFDAAC"/>
<path fill-rule="evenodd" clip-rule="evenodd" d="M71.3919 108.501C61.9633 108.501 54.3199 101.041 54.3199 91.8383C54.3199 82.6358 61.9633 75.1758 71.3919 75.1758C71.7929 75.1758 72.1906 75.1893 72.5846 75.2158C72.3109 73.6938 72.1679 72.1265 72.1679 70.5258C72.1679 55.9731 83.9805 44.1758 98.5519 44.1758C110.185 44.1758 120.06 51.6948 123.569 62.1321C124.401 62.0453 125.245 62.0008 126.1 62.0008C139.171 62.0008 149.768 72.4102 149.768 85.2508C149.768 97.4498 140.204 107.514 128.04 108.484V108.501H84.202H71.3919ZM80.7008 108.501H75.2963H80.7008Z" fill="white"/>
<path d="M80.7008 108.501H75.2963M71.3919 108.501C61.9633 108.501 54.3199 101.041 54.3199 91.8383C54.3199 82.6358 61.9633 75.1758 71.3919 75.1758C71.7929 75.1758 72.1906 75.1893 72.5846 75.2158C72.3109 73.6938 72.1679 72.1265 72.1679 70.5258C72.1679 55.9731 83.9805 44.1758 98.5519 44.1758C110.185 44.1758 120.06 51.6948 123.569 62.1321C124.401 62.0453 125.245 62.0008 126.1 62.0008C139.171 62.0008 149.768 72.4102 149.768 85.2508C149.768 97.4498 140.204 107.514 128.04 108.484V108.501H84.202H71.3919Z" stroke="black" stroke-width="2.5" stroke-linecap="round"/>
<path fill-rule="evenodd" clip-rule="evenodd" d="M90.4911 49.8648C90.4911 74.8377 113.011 95.4157 142.008 98.1939C138.374 102.657 132.762 105.684 126.369 106.16V106.174H74.2966C67.9786 106.174 57.424 103.516 57.424 91.8742C57.424 80.2326 65.6295 77.5742 74.2966 77.5742C74.6651 77.5742 75.0307 77.5857 75.3929 77.6085C75.1413 76.3023 75.097 74.956 75.0099 73.5834C74.4213 64.312 78.4713 52.6271 90.5051 48.8242C90.4955 49.1709 90.4911 49.5174 90.4911 49.8648ZM98.6422 88.9366C96.2842 88.9366 94.3726 90.8231 94.3726 93.1503C94.3726 95.4774 96.2842 97.3639 98.6422 97.3639C101 97.3639 102.912 95.4774 102.912 93.1503C102.912 90.8231 101 88.9366 98.6422 88.9366Z" fill="#FE9C14"/>
<path d="M98.94 97.65C101.297 97.65 103.208 95.7416 103.208 93.3875C103.208 91.0334 101.297 89.125 98.94 89.125C96.5828 89.125 94.672 91.0334 94.672 93.3875C94.672 95.7416 96.5828 97.65 98.94 97.65Z" stroke="black" stroke-width="2.5"/>
<path d="M86.912 84.4739L92.344 80.2167L86.912 76.1641" stroke="black" stroke-width="2.5" stroke-linecap="round" stroke-linejoin="round"/>
<path d="M110.968 84.4739L105.536 80.2167L110.968 76.1641" stroke="black" stroke-width="2.5" stroke-linecap="round" stroke-linejoin="round"/>
<path d="M106.312 51.9258C111.363 53.2608 115.351 57.2057 116.742 62.228" stroke="#FE9C14" stroke-width="2.5" stroke-linecap="round"/>
<path d="M122.608 38.7516C123.894 38.7516 124.936 37.7106 124.936 36.4266C124.936 35.1425 123.894 34.1016 122.608 34.1016C121.322 34.1016 120.28 35.1425 120.28 36.4266C120.28 37.7106 121.322 38.7516 122.608 38.7516Z" stroke="#FE9C14" stroke-width="2"/>
<path d="M146.664 51.15C147.95 51.15 148.992 50.1091 148.992 48.825C148.992 47.5409 147.95 46.5 146.664 46.5C145.378 46.5 144.336 47.5409 144.336 48.825C144.336 50.1091 145.378 51.15 146.664 51.15Z" fill="#FE9C14"/>
<path d="M128.628 44.7617L135.114 51.2393M135.212 44.7617L128.726 51.2393L135.212 44.7617Z" stroke="#FE9C14" stroke-width="2.5" stroke-linecap="round" stroke-linejoin="round"/>
<path d="M55.4093 58.5859L60.0653 63.2359M60.0653 58.5859L55.4093 63.2359L60.0653 58.5859Z" stroke="#FE9C14" stroke-width="2.5" stroke-linecap="round" stroke-linejoin="round"/>
<path d="M65.96 53.4742C67.2457 53.4742 68.288 52.4333 68.288 51.1492C68.288 49.8652 67.2457 48.8242 65.96 48.8242C64.6742 48.8242 63.632 49.8652 63.632 51.1492C63.632 52.4333 64.6742 53.4742 65.96 53.4742Z" fill="#FE9C14"/>
</svg>
