<svg width="194" height="156" viewBox="0 0 194 156" fill="none" xmlns="http://www.w3.org/2000/svg">
<rect width="194" height="155.2" fill="white"/>
<path fill-rule="evenodd" clip-rule="evenodd" d="M48.8879 103.984H119.504C119.903 103.984 120.293 103.941 120.668 103.859C121.043 103.941 121.432 103.984 121.832 103.984H162.184C165.184 103.984 167.616 101.552 167.616 98.5521C167.616 95.5521 165.184 93.1201 162.184 93.1201H157.528C154.528 93.1201 152.096 90.6881 152.096 87.6881C152.096 84.6881 154.528 82.2561 157.528 82.2561H172.272C175.272 82.2561 177.704 79.8241 177.704 76.8241C177.704 73.8241 175.272 71.3921 172.272 71.3921H155.2C158.2 71.3921 160.632 68.9601 160.632 65.9601C160.632 62.9601 158.2 60.5281 155.2 60.5281H105.536C108.536 60.5281 110.968 58.0961 110.968 55.0961C110.968 52.0961 108.536 49.6641 105.536 49.6641H61.3039C58.3039 49.6641 55.8719 52.0961 55.8719 55.0961C55.8719 58.0961 58.3039 60.5281 61.3039 60.5281H30.2639C27.2639 60.5281 24.8319 62.9601 24.8319 65.9601C24.8319 68.9601 27.2639 71.3921 30.2639 71.3921H49.6639C52.6639 71.3921 55.0959 73.8241 55.0959 76.8241C55.0959 79.8241 52.6639 82.2561 49.6639 82.2561H18.6239C15.6239 82.2561 13.1919 84.6881 13.1919 87.6881C13.1919 90.6881 15.6239 93.1201 18.6239 93.1201H48.8879C45.8879 93.1201 43.4559 95.5521 43.4559 98.5521C43.4559 101.552 45.8879 103.984 48.8879 103.984ZM175.376 103.984C178.376 103.984 180.808 101.552 180.808 98.5521C180.808 95.5521 178.376 93.1201 175.376 93.1201C172.376 93.1201 169.944 95.5521 169.944 98.5521C169.944 101.552 172.376 103.984 175.376 103.984Z" fill="#FFDAAC"/>
<path d="M133.86 34.9219V39.5779" stroke="#FE9C14" stroke-width="2.5" stroke-linecap="round" stroke-linejoin="round"/>
<path d="M133.86 45.7852V50.4412" stroke="#FE9C14" stroke-width="2.5" stroke-linecap="round" stroke-linejoin="round"/>
<path d="M126.1 42.6823H130.756" stroke="#FE9C14" stroke-width="2.5" stroke-linecap="round" stroke-linejoin="round"/>
<path d="M136.964 42.6823H141.62" stroke="#FE9C14" stroke-width="2.5" stroke-linecap="round" stroke-linejoin="round"/>
<path d="M69.452 114.848V117.952" stroke="#FE9C14" stroke-width="2.5" stroke-linecap="round" stroke-linejoin="round"/>
<path d="M69.452 124.16V127.264" stroke="#FE9C14" stroke-width="2.5" stroke-linecap="round" stroke-linejoin="round"/>
<path d="M63.2441 121.057H66.3481" stroke="#FE9C14" stroke-width="2.5" stroke-linecap="round" stroke-linejoin="round"/>
<path d="M72.5562 121.057H75.6602" stroke="#FE9C14" stroke-width="2.5" stroke-linecap="round" stroke-linejoin="round"/>
<path fill-rule="evenodd" clip-rule="evenodd" d="M124.712 101.755C125.791 100.433 126.761 99.0513 127.622 97.6208C129.515 94.4746 130.88 91.0944 131.714 87.6095C132.557 84.0849 132.858 80.4532 132.614 76.848C132.401 73.7021 131.773 70.5763 130.729 67.5594C129.693 64.5664 128.248 61.6806 126.391 58.9887C125.285 57.3846 124.033 55.8494 122.634 54.4014C120.581 52.2755 118.329 50.458 115.936 48.9501C113.365 47.3299 110.631 46.067 107.807 45.163C104.27 44.0307 100.591 43.4612 96.9116 43.4571C94.0487 43.4538 91.1855 43.7929 88.3885 44.4755C85.2397 45.244 82.1749 46.448 79.2892 48.0892C76.7525 49.5319 74.3542 51.3125 72.1589 53.4322C69.4 56.0961 67.1653 59.099 65.4568 62.3127C63.784 65.4591 62.6156 68.8075 61.9534 72.2378C61.2711 75.772 61.1262 79.3929 61.5207 82.9692C62.0319 87.6045 63.4493 92.1648 65.7774 96.3636C67.267 99.0503 69.1295 101.589 71.366 103.905C74.9165 107.581 79.0617 110.335 83.5013 112.161C88.9003 114.381 94.7347 115.229 100.465 114.694C105.274 114.245 110.009 112.822 114.352 110.418" fill="white"/>
<path d="M124.712 101.755C125.791 100.433 126.761 99.0513 127.622 97.6208C129.515 94.4746 130.88 91.0944 131.714 87.6095C132.557 84.0849 132.858 80.4532 132.614 76.848C132.401 73.7021 131.773 70.5763 130.729 67.5594C129.693 64.5664 128.248 61.6806 126.391 58.9887C125.285 57.3846 124.033 55.8494 122.634 54.4014C120.581 52.2755 118.329 50.458 115.936 48.9501C113.365 47.3299 110.631 46.067 107.807 45.163C104.27 44.0307 100.591 43.4612 96.9116 43.4571C94.0487 43.4538 91.1855 43.7929 88.3885 44.4755C85.2397 45.244 82.1749 46.448 79.2892 48.0892C76.7525 49.5319 74.3542 51.3125 72.1589 53.4322C69.4 56.0961 67.1653 59.099 65.4568 62.3127C63.784 65.4591 62.6156 68.8075 61.9534 72.2378C61.2711 75.772 61.1262 79.3929 61.5207 82.9692C62.0319 87.6045 63.4493 92.1648 65.7774 96.3636C67.267 99.0503 69.1295 101.589 71.366 103.905C74.9165 107.581 79.0617 110.335 83.5013 112.161C88.9003 114.381 94.7347 115.229 100.465 114.694C105.274 114.245 110.009 112.822 114.352 110.418" stroke="black" stroke-width="2.5" stroke-linecap="round" stroke-linejoin="round"/>
<path fill-rule="evenodd" clip-rule="evenodd" d="M116.944 108.932C119.199 107.481 121.204 105.67 122.509 104.208L116.944 108.932Z" fill="white"/>
<path d="M116.944 108.932C119.199 107.481 121.204 105.67 122.509 104.208" stroke="black" stroke-width="2.5" stroke-linecap="round"/>
<path d="M129.592 81.1814C129.37 81.1853 129.148 81.1873 128.925 81.1873C109.328 81.1873 93.2821 65.9091 91.9375 46.5586C76.3393 49.019 64.4082 62.585 64.4082 78.9515C64.4082 97.0615 79.0168 111.743 97.0373 111.743C114.312 111.743 128.452 98.2514 129.592 81.1814Z" fill="#FE9C14"/>
<path fill-rule="evenodd" clip-rule="evenodd" d="M84.6022 77.8904C83.6529 77.0138 82.1804 77.0811 81.3133 78.0408C80.4462 79.0004 80.5127 80.4889 81.462 81.3655L92.4183 91.4829C93.7473 92.7101 95.8088 92.6159 97.0228 91.2724C97.0736 91.2154 97.0736 91.2154 97.1226 91.1568L112.758 72.147C113.58 71.1476 113.445 69.6639 112.456 68.8329C111.468 68.002 110 68.1385 109.178 69.1379L94.4781 87.0101L84.6022 77.8904Z" fill="white" stroke="black" stroke-width="2.5" stroke-linecap="round"/>
<path fill-rule="evenodd" clip-rule="evenodd" d="M85.9994 49.9855C84.4861 50.5532 83.0078 51.2431 81.5797 52.0555C79.3605 53.3177 77.2624 54.8757 75.3419 56.7303C74.5546 57.4906 73.8161 58.2824 73.1265 59.1019M70.9925 61.9551C70.4442 62.7837 69.9395 63.6332 69.4786 64.5002C69.1382 65.1406 68.8217 65.7905 68.5291 66.4486" fill="white"/>
<path d="M86.4385 51.1559C87.0849 50.9134 87.4123 50.1928 87.1698 49.5464C86.9273 48.9001 86.2067 48.5727 85.5603 48.8152L86.4385 51.1559ZM81.5797 52.0555L82.1978 53.142L81.5797 52.0555ZM75.3419 56.7303L74.4735 55.8312L75.3419 56.7303ZM72.1701 58.297C71.7256 58.8252 71.7934 59.6138 72.3216 60.0583C72.8498 60.5028 73.6384 60.435 74.0829 59.9068L72.1701 58.297ZM72.035 62.6449C72.4159 62.0692 72.2581 61.2937 71.6824 60.9127C71.1067 60.5317 70.3311 60.6895 69.9501 61.2653L72.035 62.6449ZM69.4786 64.5002L70.5824 65.087L69.4786 64.5002ZM67.3869 65.9408C67.1064 66.5716 67.3904 67.3104 68.0212 67.5908C68.6521 67.8713 69.3908 67.5873 69.6713 66.9565L67.3869 65.9408ZM85.5603 48.8152C83.9858 49.4059 82.4477 50.1237 80.9617 50.9689L82.1978 53.142C83.568 52.3626 84.9863 51.7006 86.4385 51.1559L85.5603 48.8152ZM80.9617 50.9689C78.6523 52.2825 76.47 53.9032 74.4735 55.8312L76.2102 57.6295C78.0548 55.8482 80.0687 54.353 82.1978 53.142L80.9617 50.9689ZM74.4735 55.8312C73.6552 56.6214 72.8874 57.4447 72.1701 58.297L74.0829 59.9068C74.7448 59.1201 75.4539 58.3598 76.2102 57.6295L74.4735 55.8312ZM69.9501 61.2653C69.3796 62.1275 68.8545 63.0113 68.3749 63.9135L70.5824 65.087C71.0246 64.2551 71.5088 63.44 72.035 62.6449L69.9501 61.2653ZM68.3749 63.9135C68.0207 64.5798 67.6914 65.256 67.3869 65.9408L69.6713 66.9565C69.9521 66.3249 70.2558 65.7014 70.5824 65.087L68.3749 63.9135Z" fill="#FE9C14"/>
</svg>
