<svg width="160" height="160" viewBox="0 0 160 160" fill="none" xmlns="http://www.w3.org/2000/svg">
<g clip-path="url(#clip0_33_1559)">
<path d="M114.541 0H45.4587C20.3525 0 0 20.3525 0 45.4587V114.541C0 139.647 20.3525 160 45.4587 160H114.541C139.647 160 160 139.647 160 114.541V45.4587C160 20.3525 139.647 0 114.541 0Z" fill="url(#paint0_linear_33_1559)"/>
<path opacity="0.8" d="M116.483 109.314C112.916 113.091 108.823 114.927 104.18 114.927C100.402 114.927 97.1628 113.524 93.4906 109.629C109.571 104.448 120.471 90.4027 120.471 72.6964C120.471 50.125 102.87 33.6116 79.1174 33.6116V48.5228C92.6134 48.5228 102.765 58.3349 102.765 72.6964C102.765 87.058 92.6134 96.8935 79.1174 96.8935C65.6213 96.8935 55.4583 87.058 55.4583 72.6964H37.752C37.752 93.2096 52.3357 108.881 73.0593 111.466C75.1878 113.711 77.1994 115.687 79.1057 117.418C87.7015 125.137 94.6601 127.885 103.829 127.885C112.144 127.885 119.266 124.646 124.225 118.588L116.448 109.302L116.483 109.314Z" fill="white"/>
<path d="M35.7402 68.4278H53.0723C53.0489 67.1531 53.0723 58.7794 59.9022 52.6512C65.8199 47.3417 72.7785 47.3534 74.3222 47.4001V32.1615C72.03 32.0329 58.183 31.4949 46.9558 42.2777C36.0677 52.7331 35.7519 66.0538 35.7402 68.4278Z" fill="white"/>
</g>
<defs>
<linearGradient id="paint0_linear_33_1559" x1="0" y1="79.9942" x2="160" y2="79.9942" gradientUnits="userSpaceOnUse">
<stop stop-color="#FFCB14"/>
<stop offset="0.02" stop-color="#FEB914"/>
<stop offset="0.05" stop-color="#FEA815"/>
<stop offset="0.09" stop-color="#FE9C16"/>
<stop offset="0.15" stop-color="#FE9516"/>
<stop offset="0.3" stop-color="#FE9417"/>
<stop offset="0.36" stop-color="#FE8042"/>
<stop offset="0.52" stop-color="#FE53A2"/>
<stop offset="0.62" stop-color="#FE37DF"/>
<stop offset="0.67" stop-color="#FF2DF7"/>
<stop offset="1" stop-color="#D150FF"/>
</linearGradient>
<clipPath id="clip0_33_1559">
<rect width="160" height="160" fill="white"/>
</clipPath>
</defs>
</svg>
