<svg width="73" height="30" viewBox="0 0 73 30" fill="none" xmlns="http://www.w3.org/2000/svg">
<g id="Group 1000001659">
<g id="Group 1000001660">
<g id="Group 1000001663">
<g id="Rectangle 9518" filter="url(#filter0_b_4550_45058)">
<rect width="73" height="30" rx="15" fill="#FBFBFB" fill-opacity="0"/>
</g>
<g id="Group 1000001662">
<g id="Group 1000001658">
<g id="Group">
<path id="Vector" d="M12.7573 18.4482C12.2337 18.4482 11.8223 18.0243 11.8223 17.5132C11.8223 17.002 12.2462 16.5781 12.7573 16.5781C13.281 16.5781 13.6924 17.002 13.6924 17.5132C13.6924 18.0243 13.2685 18.4482 12.7573 18.4482ZM12.7573 16.9397C12.4456 16.9397 12.1963 17.189 12.1963 17.5007C12.1963 17.8124 12.4456 18.0617 12.7573 18.0617C13.069 18.0617 13.3184 17.8124 13.3184 17.5007C13.3184 17.189 13.069 16.9397 12.7573 16.9397Z" fill="white" stroke="white" stroke-width="0.5" stroke-miterlimit="10"/>
</g>
<g id="Group_2">
<path id="Vector_2" d="M12.7593 20.064C11.3507 20.064 10.1914 18.9172 10.1914 17.4961C10.1914 17.0099 10.3285 16.5363 10.5903 16.1249C10.6526 16.0376 10.7648 16.0127 10.8521 16.0626C10.9393 16.1249 10.9643 16.2371 10.9144 16.3243C10.69 16.6734 10.5778 17.0847 10.5778 17.4961C10.5778 18.7053 11.5626 19.6776 12.7593 19.6776C13.9685 19.6776 14.9408 18.6928 14.9408 17.4961C14.9408 16.2994 13.956 15.3146 12.7593 15.3146C12.2233 15.3146 11.6997 15.5141 11.3008 15.8756C11.226 15.9504 11.1014 15.9379 11.0391 15.8631C10.9643 15.7883 10.9767 15.6637 11.0515 15.6013C11.5252 15.1775 12.1236 14.9531 12.7593 14.9531C14.1679 14.9531 15.3272 16.1 15.3272 17.521C15.3272 18.9421 14.1679 20.064 12.7593 20.064Z" fill="white" stroke="white" stroke-width="0.5" stroke-miterlimit="10"/>
</g>
<g id="Group_3">
<path id="Vector_3" d="M14.0305 21.4356C13.9557 21.4356 13.8809 21.3857 13.856 21.3109C13.8186 21.2112 13.8809 21.099 13.9682 21.0741C15.489 20.5505 16.5112 19.1294 16.5112 17.5214C16.5112 15.4521 14.8283 13.7568 12.7466 13.7568C12.6468 13.7568 12.5596 13.6695 12.5596 13.5698C12.5596 13.4701 12.6468 13.3828 12.7466 13.3828C15.0278 13.3828 16.8851 15.2402 16.8851 17.5214C16.8851 19.2915 15.7632 20.8622 14.0804 21.4356C14.0679 21.4356 14.0554 21.4356 14.0305 21.4356Z" fill="white" stroke="white" stroke-width="0.5" stroke-miterlimit="10"/>
</g>
<g id="Group_4">
<path id="Vector_4" d="M8.80808 17.556C8.69589 17.556 8.62109 17.4687 8.62109 17.3565C8.68342 15.4493 10.0297 13.8412 11.8995 13.4423C11.9993 13.4174 12.099 13.4922 12.1239 13.5919C12.1488 13.6916 12.0741 13.7914 11.9743 13.8163C10.279 14.1778 9.05739 15.6363 8.99506 17.369C8.99506 17.4687 8.9078 17.556 8.80808 17.556Z" fill="white" stroke="white" stroke-width="0.5" stroke-miterlimit="10"/>
</g>
<g id="Group_5">
<path id="Vector_5" d="M17.0588 21.1947C17.0214 21.1947 16.9716 21.1823 16.9342 21.1573C16.8469 21.095 16.8469 20.9703 16.9093 20.8956C17.4951 20.1725 17.894 19.3 18.0436 18.39C18.0561 18.2902 18.1558 18.2155 18.2555 18.2279C18.3553 18.2404 18.4301 18.3401 18.4176 18.4398C18.2555 19.4246 17.8317 20.3471 17.2084 21.1199C17.171 21.1698 17.1212 21.1947 17.0588 21.1947Z" fill="white" stroke="white" stroke-width="0.5" stroke-miterlimit="10"/>
</g>
<g id="Group_6">
<path id="Vector_6" d="M18.3058 17.6772C18.2061 17.6772 18.1188 17.59 18.1188 17.4903C18.1188 16.3185 17.7448 15.1966 17.0468 14.2617C16.9844 14.1744 16.9969 14.0622 17.0842 13.9999C17.1714 13.9376 17.2836 13.95 17.3459 14.0373C18.1063 15.0345 18.5052 16.2312 18.5052 17.4903C18.5052 17.6024 18.418 17.6772 18.3058 17.6772Z" fill="white" stroke="white" stroke-width="0.5" stroke-miterlimit="10"/>
</g>
<g id="Group_7">
<path id="Vector_7" d="M8.19668 14.5205C8.15928 14.5205 8.12188 14.508 8.08448 14.4831C7.99723 14.4208 7.97229 14.3086 8.03462 14.2213C9.10666 12.6756 10.8768 11.7656 12.7466 11.7656C14.2425 11.7656 15.6635 12.339 16.7356 13.3861C16.8104 13.4609 16.8104 13.5731 16.7356 13.6604C16.6608 13.7352 16.5486 13.7352 16.4613 13.6604C15.4516 12.6881 14.1303 12.1521 12.7341 12.1521C10.9765 12.1521 9.33104 13.0122 8.3338 14.4457C8.32133 14.4831 8.259 14.5205 8.19668 14.5205Z" fill="white" stroke="white" stroke-width="0.5" stroke-miterlimit="10"/>
</g>
<g id="Group_8">
<path id="Vector_8" d="M14.3527 10.6828C13.8291 10.5581 13.2931 10.4958 12.7446 10.4958C11.4108 10.4958 10.1269 10.8698 9.00496 11.5803C8.96757 11.6052 8.94264 11.6052 8.90524 11.6052C8.84291 11.6052 8.78058 11.5803 8.74319 11.518C8.69332 11.4307 8.71826 11.3185 8.80551 11.2562C9.98974 10.5083 11.3485 10.1094 12.7446 10.1094C13.318 10.1094 13.879 10.1717 14.4399 10.3088L15.4746 10.6329C18.3043 11.7548 20.1367 14.4474 20.1367 17.5015C20.1367 18.1995 20.037 18.8851 19.85 19.5583C19.8251 19.6455 19.7503 19.6954 19.663 19.6954C19.6506 19.6954 19.6256 19.6954 19.6132 19.6829C19.5134 19.658 19.4511 19.5458 19.4885 19.4461C19.6755 18.8103 19.7627 18.1621 19.7627 17.5015C19.7627 14.6094 18.03 12.054 15.3499 10.9944L14.3527 10.6828Z" fill="white" stroke="white" stroke-width="0.5" stroke-miterlimit="10"/>
</g>
<g id="Group_9">
<path id="Vector_9" d="M21.4612 16.7651C21.3615 16.7651 21.2867 16.6903 21.2742 16.5906C21.1371 15.2443 20.6634 13.923 19.9155 12.7886C19.8532 12.7013 19.8781 12.5891 19.9653 12.5268C20.0526 12.4645 20.1648 12.4894 20.2271 12.5767C21.0125 13.7609 21.4986 15.1321 21.6482 16.5407C21.6607 16.6404 21.5859 16.7402 21.4737 16.7526C21.4737 16.7651 21.4737 16.7651 21.4612 16.7651Z" fill="white" stroke="white" stroke-width="0.5" stroke-miterlimit="10"/>
</g>
<g id="Group_10">
<path id="Vector_10" d="M19.3411 11.9407C19.2913 11.9407 19.2414 11.9157 19.204 11.8783C17.571 10.021 15.2275 8.94893 12.7593 8.94893C12.2856 8.94893 11.7995 8.98633 11.3383 9.06112C11.2385 9.07359 11.1388 9.01126 11.1139 8.91154C11.1014 8.81181 11.1637 8.71209 11.2759 8.68715C11.7621 8.5999 12.2607 8.5625 12.7593 8.5625C15.3397 8.5625 17.7954 9.67194 19.4907 11.6166C19.5655 11.6914 19.5531 11.816 19.4783 11.8783C19.4284 11.9282 19.391 11.9407 19.3411 11.9407Z" fill="white" stroke="white" stroke-width="0.5" stroke-miterlimit="10"/>
</g>
<g id="Group_11">
<path id="Vector_11" d="M20.4756 10.8143C20.4258 10.8143 20.3759 10.7893 20.3385 10.7519C19.441 9.74224 18.369 8.93198 17.1473 8.35856C17.0476 8.3087 17.0102 8.19651 17.0601 8.10925C17.1099 8.00952 17.2221 7.97213 17.3094 8.02199C18.5684 8.62034 19.6778 9.468 20.6128 10.5151C20.6876 10.5899 20.6751 10.7146 20.6003 10.7769C20.5629 10.7893 20.513 10.8143 20.4756 10.8143Z" fill="white" stroke="white" stroke-width="0.5" stroke-miterlimit="10"/>
</g>
</g>
<g id="Group_12">
<path id="Union" fill-rule="evenodd" clip-rule="evenodd" d="M36.3887 18.8051H37.7849L36.6689 9.625H35.4742L32.4576 16.0182L29.441 9.625H28.2339L27.1309 18.8051H28.5146L29.2819 12.4465L31.9064 17.9231H33.0213L35.6219 12.4737L36.3887 18.8051ZM29.2515 9.93556L32.4576 16.7306L35.6638 9.93556H36.4018L37.4423 18.4945H37.4423L36.4024 9.94041H35.6644L32.4582 16.7354L29.252 9.94041H28.5019L27.4741 18.4945H27.4729L28.5013 9.93556H29.2515ZM59.1027 18.4945H59.102V9.93556H62.1992C63.6822 9.93556 64.385 10.8716 64.5613 11.9623C64.3837 10.8737 63.6808 9.94041 62.2 9.94041H59.1027V18.4945ZM62.2388 15.1453L62.2363 15.1454L64.5438 18.4945H64.5464L62.2388 15.1453ZM64.3009 14.5125C63.9499 14.9593 63.4466 15.2766 62.7832 15.3977L65.1309 18.8051H63.421L61.1343 15.4511H60.2029V18.8051H58.7995V9.625H62.1992C63.151 9.625 63.8436 9.98221 64.2916 10.5508C64.7313 11.109 64.9094 11.8374 64.9094 12.5442C64.9094 13.2448 64.7344 13.9606 64.3009 14.5125ZM63.8084 12.5442C63.8084 13.5629 63.3123 14.3827 62.0057 14.3827H59.9013V14.3876H62.0064C63.3131 14.3876 63.8092 13.5677 63.8092 12.5491C63.8092 12.4008 63.7979 12.2568 63.7753 12.1189C63.7974 12.2553 63.8084 12.3977 63.8084 12.5442ZM62.0057 14.0722H60.2029V11.0163H62.2113C62.6606 11.0163 62.9713 11.1853 63.1755 11.4403C63.3861 11.7032 63.5059 12.0868 63.5059 12.5442C63.5059 13.0064 63.3931 13.3822 63.1708 13.6393C62.9543 13.8897 62.5951 14.0722 62.0057 14.0722ZM48.5045 18.4945V9.94041H49.3023V9.93556H48.5037V18.4945H48.5045ZM55.0325 9.94041C56.4857 9.94041 57.1927 10.878 57.3702 11.9698C57.194 10.8759 56.4871 9.93556 55.0317 9.93556H51.7529V18.4945H51.7537V9.94041H55.0325ZM56.6174 12.5491C56.6174 13.4808 56.1576 14.3876 54.9599 14.3876H52.5522V14.3827H54.9591C56.1569 14.3827 56.6166 13.4759 56.6166 12.5442C56.6166 12.4021 56.6059 12.26 56.5836 12.1212C56.6064 12.2615 56.6174 12.4053 56.6174 12.5491ZM43.0499 12.6982H43.8823L43.8843 12.6934H43.0495L41.1016 17.4387L39.1779 12.6934H38.3431L38.3451 12.6982H39.1783L41.102 17.4435L43.0499 12.6982ZM40.6785 18.4249L39.519 21.3144H39.5167L40.6774 18.4221L40.6785 18.4249ZM52.8539 18.8051H51.4504V9.625H55.0317C55.9673 9.625 56.6533 9.98372 57.0986 10.5513C57.536 11.1086 57.7176 11.8363 57.7176 12.5442C57.7176 13.258 57.5362 13.9869 57.0927 14.5436C56.6413 15.1103 55.946 15.4635 54.9954 15.4635H52.8539V18.8051ZM55.9999 13.6201C56.2101 13.3475 56.3141 12.9631 56.3141 12.5442C56.3141 12.1305 56.2126 11.7438 56.0084 11.4684C55.8132 11.2051 55.5052 11.0163 55.0196 11.0163H52.8539V14.0722H54.9591C55.475 14.0722 55.7982 13.8816 55.9999 13.6201ZM48.2013 9.625V18.8051H49.6047V9.625H48.2013ZM40.3507 18.421L39.0649 21.625H40.54L44.3404 12.3828H42.8488L41.1034 16.6348L39.3797 12.3828H37.8886L40.3507 18.421Z" fill="white"/>
</g>
</g>
</g>
</g>
</g>
<defs>
<filter id="filter0_b_4550_45058" x="-100" y="-100" width="273" height="230" filterUnits="userSpaceOnUse" color-interpolation-filters="sRGB">
<feFlood flood-opacity="0" result="BackgroundImageFix"/>
<feGaussianBlur in="BackgroundImageFix" stdDeviation="50"/>
<feComposite in2="SourceAlpha" operator="in" result="effect1_backgroundBlur_4550_45058"/>
<feBlend mode="normal" in="SourceGraphic" in2="effect1_backgroundBlur_4550_45058" result="shape"/>
</filter>
</defs>
</svg>
