<svg width="82" height="24" viewBox="0 0 82 24" fill="none" xmlns="http://www.w3.org/2000/svg">
<g id="Layer_1" clip-path="url(#clip0_8863_46545)">
<g id="Group">
<path id="Vector" d="M8.73595 18.7239C7.78167 18.7239 7.00586 17.982 7.00586 17.0695C7.00586 16.1569 7.78167 15.415 8.73595 15.415C9.69023 15.415 10.466 16.1569 10.466 17.0695C10.466 17.982 9.69023 18.7239 8.73595 18.7239ZM8.73595 16.0822C8.16663 16.0822 7.7035 16.5251 7.7035 17.0695C7.7035 17.6139 8.16663 18.0568 8.73595 18.0568C9.30527 18.0568 9.7684 17.6139 9.7684 17.0695C9.7684 16.5251 9.30527 16.0822 8.73595 16.0822Z" fill="#02AAA5"/>
<path id="Vector_2" d="M8.73488 20.2824C6.88237 20.2824 5.375 18.8409 5.375 17.0694C5.375 15.2979 6.88237 13.8564 8.73488 13.8564C10.5874 13.8564 12.0948 15.2979 12.0948 17.0694C12.0948 18.8409 10.5874 20.2824 8.73488 20.2824ZM8.73488 14.5236C7.26733 14.5236 6.07264 15.666 6.07264 17.0694C6.07264 18.4728 7.26733 19.6153 8.73488 19.6153C10.2024 19.6153 11.3971 18.4728 11.3971 17.0694C11.3971 15.666 10.2024 14.5236 8.73488 14.5236Z" fill="#02AAA5"/>
<path id="Vector_3" d="M8.7373 21.577C6.13848 21.577 4.02344 19.5545 4.02344 17.0693C4.02344 16.2089 4.27712 15.3725 4.75943 14.649C4.86415 14.4938 5.07801 14.4473 5.24173 14.5474C5.40397 14.6462 5.45264 14.8521 5.34792 15.0086C4.93789 15.6236 4.72108 16.3359 4.72108 17.0693C4.72108 19.1878 6.52344 20.9099 8.7373 20.9099C10.9512 20.9099 12.7535 19.1863 12.7535 17.0693C12.7535 14.9522 10.9512 13.2287 8.7373 13.2287C7.74763 13.2287 6.7963 13.5756 6.05884 14.2075C5.91577 14.3302 5.696 14.3189 5.56621 14.1821C5.43789 14.0453 5.44969 13.8337 5.59276 13.711C6.45854 12.9706 7.57506 12.5615 8.7373 12.5615C11.3376 12.5615 13.4512 14.5841 13.4512 17.0693C13.4512 19.5545 11.3361 21.577 8.7373 21.577Z" fill="#02AAA5"/>
<path id="Vector_4" d="M3.8934 20.5048C3.78131 20.5048 3.67069 20.4526 3.60284 20.3567C2.91995 19.3835 2.55859 18.2467 2.55859 17.069C2.55859 13.8109 5.32998 11.1606 8.73706 11.1606C12.1441 11.1606 14.9155 13.8109 14.9155 17.069C14.9155 17.4145 14.8831 17.7615 14.8211 18.1C14.7887 18.2805 14.6087 18.4047 14.417 18.3708C14.2267 18.3384 14.0999 18.1663 14.1338 17.9843C14.1884 17.6839 14.2164 17.375 14.2164 17.069C14.2164 14.179 11.7577 11.8278 8.73559 11.8278C5.71346 11.8278 3.25476 14.179 3.25476 17.069C3.25476 18.1127 3.57482 19.1212 4.18101 19.9843C4.28868 20.1367 4.24591 20.344 4.08514 20.447C4.02467 20.485 3.9583 20.5034 3.89193 20.5034L3.8934 20.5048Z" fill="#02AAA5"/>
<path id="Vector_5" d="M8.73667 22.9775C8.1231 22.9775 7.51691 22.8914 6.93431 22.7222C6.74994 22.6686 6.6467 22.4824 6.70275 22.3061C6.75879 22.1298 6.95201 22.0311 7.13785 22.0833C7.65407 22.2342 8.19242 22.3103 8.73667 22.3103C10.9019 22.3103 12.8709 21.0861 13.7485 19.1919C13.8266 19.0226 14.0331 18.9479 14.2086 19.0226C14.3842 19.0974 14.4638 19.2948 14.3856 19.4627C13.3945 21.5981 11.1777 22.9775 8.73519 22.9775H8.73667Z" fill="#02AAA5"/>
<path id="Vector_6" d="M11.0844 23.9804C10.9383 23.9804 10.8041 23.8929 10.754 23.7547C10.692 23.5798 10.7894 23.3908 10.9708 23.3316C13.7717 22.4176 15.6522 19.9014 15.6522 17.0692C15.6522 13.4219 12.549 10.4543 8.7348 10.4543C8.54159 10.4543 8.38672 10.3048 8.38672 10.1214C8.38672 9.93808 8.54306 9.78857 8.7348 9.78857C12.9339 9.78857 16.3498 13.0551 16.3498 17.0707C16.3498 20.1877 14.279 22.9578 11.195 23.9635C11.1581 23.9762 11.1198 23.9818 11.0829 23.9818L11.0844 23.9804Z" fill="#02AAA5"/>
<path id="Vector_7" d="M1.4753 17.1653C1.4753 17.1653 1.46792 17.1653 1.4635 17.1653C1.27028 17.1597 1.11984 17.0046 1.12721 16.8212C1.24521 13.4644 3.72603 10.6364 7.15966 9.94532C7.3455 9.90865 7.53282 10.0229 7.57264 10.2034C7.61246 10.384 7.49152 10.5603 7.30273 10.5984C4.18474 11.2274 1.93105 13.7958 1.82485 16.8438C1.81895 17.0243 1.66409 17.1668 1.47677 17.1668L1.4753 17.1653Z" fill="#02AAA5"/>
<path id="Vector_8" d="M14.0882 23.9998C13.9834 23.9998 13.8817 23.9561 13.8123 23.8715C13.6943 23.7262 13.7209 23.516 13.8743 23.4032C15.9362 21.8715 17.1177 19.5626 17.1177 17.0703C17.1177 12.6514 13.3581 9.05483 8.73565 9.05483C5.28874 9.05483 2.14273 11.1225 0.908213 14.1987C0.838892 14.3708 0.636827 14.4554 0.458361 14.3905C0.27842 14.3242 0.18845 14.131 0.257771 13.9603C1.59553 10.6275 5.00261 8.3877 8.73712 8.3877C13.743 8.3877 17.8168 12.2819 17.8168 17.0703C17.8168 19.7713 16.5365 22.2706 14.3035 23.9307C14.2401 23.9787 14.1648 24.0012 14.0896 24.0012L14.0882 23.9998Z" fill="#02AAA5"/>
<path id="Vector_9" d="M16.6643 23.5742C16.5861 23.5742 16.5079 23.5503 16.4445 23.4995C16.2955 23.3824 16.2734 23.1723 16.3944 23.0298C17.4784 21.7562 18.1997 20.2315 18.477 18.618C18.5079 18.436 18.6923 18.3147 18.8781 18.3429C19.0684 18.3726 19.1967 18.5446 19.1657 18.7266C18.8678 20.4544 18.0964 22.0876 16.9342 23.4501C16.8663 23.5305 16.7646 23.5728 16.6643 23.5728V23.5742Z" fill="#02AAA5"/>
<path id="Vector_10" d="M18.9572 17.4035C18.764 17.4035 18.6091 17.254 18.6091 17.0706C18.6091 15.0029 17.9233 13.0396 16.6254 11.3936C16.5088 11.2469 16.5398 11.0382 16.6932 10.9267C16.8466 10.8167 17.0649 10.8449 17.1814 10.993C18.5708 12.7561 19.3053 14.8576 19.3053 17.072C19.3053 17.2568 19.149 17.4049 18.9572 17.4049V17.4035Z" fill="#02AAA5"/>
<path id="Vector_11" d="M0.348211 11.8138C0.280364 11.8138 0.209568 11.7941 0.149096 11.7546C-0.00872118 11.6488 -0.0470693 11.4415 0.0620753 11.2905C2.03995 8.57969 5.28331 6.96191 8.73464 6.96191C11.4928 6.96191 14.1019 7.97179 16.0827 9.80395C16.2214 9.9323 16.2243 10.1425 16.0916 10.275C15.9574 10.4076 15.7376 10.4118 15.5989 10.2835C13.7479 8.57122 11.3113 7.62905 8.73464 7.62905C5.51045 7.62905 2.48243 9.14104 0.634347 11.6728C0.5665 11.7659 0.45883 11.8152 0.348211 11.8152V11.8138Z" fill="#02AAA5"/>
<path id="Vector_12" d="M19.0999 22.5136C19.0468 22.5136 18.9908 22.5023 18.9406 22.4769C18.7695 22.3923 18.7032 22.1906 18.7917 22.027C19.625 20.4854 20.0468 18.8168 20.0468 17.0693C20.0468 11.106 14.9731 6.25405 8.7371 6.25405C5.78725 6.25405 2.99521 7.33445 0.87574 9.29495C0.737097 9.4233 0.517333 9.41907 0.383115 9.28649C0.248897 9.15391 0.253322 8.94234 0.391965 8.8154C2.6427 6.7336 5.6073 5.58691 8.73857 5.58691C15.3595 5.58691 20.7459 10.7378 20.7459 17.0693C20.7459 18.8986 20.2843 20.7195 19.4126 22.333C19.3507 22.4473 19.2283 22.5136 19.1029 22.5136H19.0999Z" fill="#02AAA5"/>
<path id="Vector_13" d="M21.4515 20.9196C21.419 20.9196 21.3866 20.9154 21.3541 20.9069C21.1683 20.8562 21.0621 20.6714 21.1152 20.4937C21.45 19.3865 21.6196 18.2342 21.6196 17.0691C21.6196 11.9859 18.4279 7.48946 13.4884 5.61358C13.3084 5.54588 13.2214 5.35124 13.2922 5.18058C13.363 5.00991 13.5665 4.9267 13.745 4.99299C18.9515 6.97042 22.3158 11.7109 22.3158 17.0691C22.3158 18.2962 22.1373 19.5106 21.7833 20.6785C21.7391 20.8251 21.6004 20.9196 21.4485 20.9196H21.4515Z" fill="#02AAA5"/>
<path id="Vector_14" d="M1.66563 6.70349C1.54911 6.70349 1.43701 6.64848 1.37064 6.54834C1.2674 6.39319 1.31607 6.18727 1.47831 6.08854C3.64645 4.77542 6.15678 4.08008 8.73642 4.08008C9.78657 4.08008 10.8323 4.19573 11.847 4.42281C12.0344 4.46513 12.1509 4.64425 12.1066 4.82338C12.0624 5.0025 11.8751 5.11393 11.6877 5.07162C10.7261 4.85582 9.732 4.74721 8.73642 4.74721C6.28952 4.74721 3.90899 5.40589 1.85294 6.6513C1.79542 6.68657 1.73052 6.70349 1.6671 6.70349H1.66563Z" fill="#02AAA5"/>
<path id="Vector_15" d="M23.3188 18.6898C23.3085 18.6898 23.2981 18.6898 23.2863 18.6898C23.0946 18.6729 22.953 18.5107 22.9707 18.3273C23.0105 17.914 23.0297 17.4909 23.0297 17.0706C23.0297 9.53322 16.6182 3.40205 8.73618 3.40205C6.9117 3.40205 5.13589 3.72646 3.45594 4.36538C3.27748 4.43308 3.07394 4.35128 3.00314 4.17921C2.93235 4.00854 3.01937 3.8139 3.19783 3.7462C4.96037 3.07624 6.8232 2.73633 8.73618 2.73633C17.0017 2.73633 23.7273 9.16651 23.7273 17.072C23.7273 17.5121 23.7067 17.9564 23.6654 18.3894C23.6492 18.5628 23.4972 18.6926 23.3188 18.6926V18.6898Z" fill="#02AAA5"/>
<path id="Vector_16" d="M24.7526 15.7775C24.5771 15.7775 24.4251 15.6506 24.406 15.4785C24.1449 13.1047 23.2821 10.7944 21.9089 8.79865C21.8027 8.64491 21.8484 8.43758 22.0092 8.33744C22.17 8.23589 22.3868 8.2782 22.493 8.43335C23.9266 10.518 24.8293 12.9298 25.1007 15.4108C25.1213 15.5941 24.9812 15.7577 24.7895 15.7775C24.7777 15.7775 24.7644 15.7789 24.7526 15.7789V15.7775Z" fill="#02AAA5"/>
<path id="Vector_17" d="M20.8581 7.26249C20.7608 7.26249 20.6649 7.2244 20.5956 7.14824C17.6015 3.87744 13.2785 2.00014 8.73568 2.00014C7.85957 2.00014 6.98052 2.06926 6.12063 2.20607C5.93479 2.23569 5.75043 2.11439 5.71945 1.93244C5.68848 1.7505 5.8168 1.57842 6.00707 1.5488C6.90382 1.40635 7.82122 1.33301 8.73568 1.33301C13.4805 1.33301 17.9953 3.29211 21.1221 6.70818C21.249 6.84641 21.2342 7.05797 21.0897 7.17927C21.0233 7.23428 20.9422 7.26249 20.8596 7.26249H20.8581Z" fill="#02AAA5"/>
<path id="Vector_18" d="M25.2449 11.7139C25.1018 11.7139 24.9676 11.6293 24.916 11.4939C23.9396 8.9015 22.2744 6.56299 20.1004 4.73083C19.9558 4.60954 19.9425 4.39797 20.0694 4.25975C20.1977 4.12153 20.4175 4.10883 20.562 4.23013C22.8231 6.13563 24.5561 8.56863 25.5723 11.2668C25.6372 11.4403 25.5428 11.6307 25.3614 11.6942C25.3231 11.7083 25.2818 11.7139 25.2434 11.7139H25.2449Z" fill="#02AAA5"/>
<path id="Vector_19" d="M19.1038 3.86882C19.033 3.86882 18.9607 3.84766 18.8987 3.80394C16.2807 1.96614 13.1834 0.881511 9.94446 0.667124C9.75272 0.65443 9.6067 0.495051 9.61998 0.311694C9.63325 0.128337 9.80582 -0.0141171 9.99166 -1.27205e-05C13.3633 0.222836 16.5846 1.3526 19.3102 3.26515C19.4651 3.37375 19.499 3.5825 19.3855 3.732C19.3176 3.82086 19.2114 3.86882 19.1038 3.86882Z" fill="#02AAA5"/>
<path id="Vector_20" d="M22.9342 5.27804C22.8384 5.27804 22.7425 5.23996 22.6746 5.16662C21.0168 3.39229 19.0419 1.97198 16.8059 0.94659C16.6319 0.866195 16.5581 0.667324 16.6422 0.502302C16.7248 0.335871 16.9327 0.265349 17.1068 0.345744C19.4254 1.40921 21.474 2.88171 23.1938 4.72233C23.3221 4.85914 23.3103 5.07071 23.1658 5.19342C23.0994 5.24983 23.0153 5.27804 22.9327 5.27804H22.9342Z" fill="#02AAA5"/>
</g>
<g id="Group_2">
<path id="Vector_21" d="M43.6969 16.9523H40.8916L40.1069 10.422L37.4933 15.6364H35.4034L32.7898 10.4389L31.9889 16.9537H29.1836L30.6644 5.47559H32.9461L36.4476 12.6561L39.8975 5.47559H42.2323L43.6954 16.9537L43.6969 16.9523Z" fill="#02AAA5"/>
<path id="Vector_22" d="M50.788 9.1709H53.5579L48.5402 20.783H45.788L47.7909 16.0186L44.5859 9.1709H47.4429L49.1331 13.2019L50.788 9.1709Z" fill="#02AAA5"/>
<path id="Vector_23" d="M55.2656 16.9522V5.47266H58.0001V16.9508H55.2656V16.9522Z" fill="#02AAA5"/>
<path id="Vector_24" d="M66.066 5.47266C68.8537 5.47266 70.1073 7.37252 70.1073 9.27096C70.1073 11.1694 68.8537 13.0523 66.066 13.0523H63.8537V16.9508H61.1191V5.47266H66.066ZM65.9436 10.7703C66.9716 10.7703 67.3551 10.0044 67.3551 9.27096C67.3551 8.53754 66.9716 7.75474 65.9613 7.75474H63.8537V10.7703H65.9436Z" fill="#02AAA5"/>
<path id="Vector_25" d="M78.3118 16.9522L75.5596 12.9198H75.0021V16.9522H72.2676V5.47266H77.1806C79.9682 5.47266 81.2219 7.37252 81.2219 9.27096C81.2219 10.8873 79.9682 12.436 78.4165 12.7688L81.5006 16.9508H78.3118V16.9522ZM75.0021 7.75615V10.8549H76.744C77.946 10.8549 78.4682 10.1045 78.4682 9.33866C78.4682 8.5728 77.9283 7.75615 76.8133 7.75615H75.0021Z" fill="#02AAA5"/>
</g>
</g>
<defs>
<clipPath id="clip0_8863_46545">
<rect width="81.5" height="24" fill="white"/>
</clipPath>
</defs>
</svg>
