<svg xmlns="http://www.w3.org/2000/svg" width="19" height="22" viewBox="0 0 19 22" fill="none">
    <path d="M15.5167 21.3451C14.6546 21.3451 13.9219 21.0434 13.3185 20.44C12.715 19.8366 12.4133 19.1038 12.4133 18.2418C12.4133 18.1211 12.422 17.9961 12.4392 17.8668C12.4564 17.7375 12.4823 17.6211 12.5168 17.5177L5.22394 13.2765C4.93085 13.5351 4.60328 13.7377 4.24122 13.8842C3.87917 14.0308 3.49987 14.104 3.10333 14.104C2.2413 14.104 1.50856 13.8023 0.905139 13.1989C0.301713 12.5955 0 11.8627 0 11.0007C0 10.1387 0.301713 9.40592 0.905139 8.8025C1.50856 8.19907 2.2413 7.89736 3.10333 7.89736C3.49987 7.89736 3.87917 7.97063 4.24122 8.11718C4.60328 8.26373 4.93085 8.4663 5.22394 8.72492L12.5168 4.48369C12.4823 4.38025 12.4564 4.26387 12.4392 4.13457C12.422 4.00526 12.4133 3.88027 12.4133 3.75958C12.4133 2.89755 12.715 2.16481 13.3185 1.56139C13.9219 0.957963 14.6546 0.65625 15.5167 0.65625C16.3787 0.65625 17.1114 0.957963 17.7149 1.56139C18.3183 2.16481 18.62 2.89755 18.62 3.75958C18.62 4.62162 18.3183 5.35435 17.7149 5.95778C17.1114 6.5612 16.3787 6.86292 15.5167 6.86292C15.1201 6.86292 14.7408 6.78964 14.3788 6.6431C14.0167 6.49655 13.6891 6.29397 13.3961 6.03536L6.10322 10.2766C6.1377 10.38 6.16356 10.4964 6.18081 10.6257C6.19805 10.755 6.20667 10.88 6.20667 11.0007C6.20667 11.1214 6.19805 11.2464 6.18081 11.3757C6.16356 11.505 6.1377 11.6214 6.10322 11.7248L13.3961 15.966C13.6891 15.7074 14.0167 15.5048 14.3788 15.3583C14.7408 15.2117 15.1201 15.1385 15.5167 15.1385C16.3787 15.1385 17.1114 15.4402 17.7149 16.0436C18.3183 16.647 18.62 17.3798 18.62 18.2418C18.62 19.1038 18.3183 19.8366 17.7149 20.44C17.1114 21.0434 16.3787 21.3451 15.5167 21.3451ZM15.5167 4.79403C15.8098 4.79403 16.0554 4.69489 16.2537 4.49662C16.452 4.29836 16.5511 4.05268 16.5511 3.75958C16.5511 3.46649 16.452 3.22081 16.2537 3.02254C16.0554 2.82427 15.8098 2.72514 15.5167 2.72514C15.2236 2.72514 14.9779 2.82427 14.7796 3.02254C14.5814 3.22081 14.4822 3.46649 14.4822 3.75958C14.4822 4.05268 14.5814 4.29836 14.7796 4.49662C14.9779 4.69489 15.2236 4.79403 15.5167 4.79403ZM3.10333 12.0351C3.39643 12.0351 3.64211 11.936 3.84038 11.7377C4.03864 11.5395 4.13778 11.2938 4.13778 11.0007C4.13778 10.7076 4.03864 10.4619 3.84038 10.2637C3.64211 10.0654 3.39643 9.96625 3.10333 9.96625C2.81024 9.96625 2.56456 10.0654 2.36629 10.2637C2.16802 10.4619 2.06889 10.7076 2.06889 11.0007C2.06889 11.2938 2.16802 11.5395 2.36629 11.7377C2.56456 11.936 2.81024 12.0351 3.10333 12.0351ZM15.5167 19.2762C15.8098 19.2762 16.0554 19.1771 16.2537 18.9788C16.452 18.7806 16.5511 18.5349 16.5511 18.2418C16.5511 17.9487 16.452 17.703 16.2537 17.5048C16.0554 17.3065 15.8098 17.2074 15.5167 17.2074C15.2236 17.2074 14.9779 17.3065 14.7796 17.5048C14.5814 17.703 14.4822 17.9487 14.4822 18.2418C14.4822 18.5349 14.5814 18.7806 14.7796 18.9788C14.9779 19.1771 15.2236 19.2762 15.5167 19.2762Z" fill="black"/>
</svg>