<svg
    width="50"
    height="50"
    viewBox="0 0 50 50"
    fill="none"
    xmlns="http://www.w3.org/2000/svg"
>
    <circle
        cx="25"
        cy="25"
        r="24.5"
        fill="#C34AC3"
        fill-opacity="0.1"
        stroke="#C34AC3"
    />
    <path
        d="M23.437 20.6247C23.437 20.7895 23.3031 20.9235 23.1383 20.9235H13.2988C13.1339 20.9235 13 20.7895 13 20.6247C13 20.4599 13.1339 20.326 13.2988 20.326H23.1383C23.3036 20.326 23.437 20.4594 23.437 20.6247ZM13.2988 22.9177H18.2188C18.3836 22.9177 18.5175 22.7837 18.5175 22.6189C18.5175 22.4541 18.3836 22.3202 18.2188 22.3202H13.2988C13.1339 22.3202 13 22.4541 13 22.6189C13 22.7837 13.1339 22.9177 13.2988 22.9177ZM23.1383 22.3202H20.0382C19.8734 22.3202 19.7394 22.4541 19.7394 22.6189C19.7394 22.7837 19.8734 22.9177 20.0382 22.9177H23.1383C23.3031 22.9177 23.437 22.7837 23.437 22.6189C23.437 22.4541 23.3036 22.3202 23.1383 22.3202ZM23.1383 24.3149H13.2988C13.1339 24.3149 13 24.4488 13 24.6136C13 24.7784 13.1339 24.9124 13.2988 24.9124H23.1383C23.3031 24.9124 23.437 24.7784 23.437 24.6136C23.437 24.4488 23.3036 24.3149 23.1383 24.3149ZM21.7416 26.6078C21.7416 26.443 21.6076 26.309 21.4428 26.309H13.2988C13.1339 26.309 13 26.443 13 26.6078C13 26.7726 13.1339 26.9066 13.2988 26.9066H21.4428C21.6076 26.9066 21.7416 26.7731 21.7416 26.6078ZM26.563 23.6163C26.563 23.7811 26.6969 23.915 26.8617 23.915H36.7012C36.8661 23.915 37 23.7811 37 23.6163C37 23.4515 36.8661 23.3175 36.7012 23.3175H26.8617C26.6964 23.3175 26.563 23.4515 26.563 23.6163ZM26.8617 25.3122C26.6969 25.3122 26.563 25.4461 26.563 25.611C26.563 25.7758 26.6969 25.9097 26.8617 25.9097H29.9618C30.1266 25.9097 30.2606 25.7758 30.2606 25.611C30.2606 25.4461 30.1266 25.3122 29.9618 25.3122H26.8617ZM36.7012 25.3122H31.7812C31.6164 25.3122 31.4825 25.4461 31.4825 25.611C31.4825 25.7758 31.6164 25.9097 31.7812 25.9097H36.7012C36.8661 25.9097 37 25.7758 37 25.611C37 25.4461 36.8661 25.3122 36.7012 25.3122ZM36.7012 27.3064H26.8617C26.6969 27.3064 26.563 27.4403 26.563 27.6051C26.563 27.77 26.6969 27.9039 26.8617 27.9039H36.7012C36.8661 27.9039 37 27.77 37 27.6051C37 27.4403 36.8661 27.3064 36.7012 27.3064ZM36.7012 29.3011H28.9749C28.8101 29.3011 28.6762 29.435 28.6762 29.5998C28.6762 29.7646 28.8101 29.8986 28.9749 29.8986H36.7012C36.8661 29.8986 37 29.7646 37 29.5998C37 29.435 36.8661 29.3011 36.7012 29.3011ZM22.6538 34.359V36.646C22.6538 36.8108 22.5198 36.9447 22.355 36.9447H15.0375C14.8727 36.9447 14.7388 36.8108 14.7388 36.646V34.359C14.7388 32.9663 15.8461 31.8276 17.2264 31.7763C16.6986 31.3476 16.3605 30.6938 16.3605 29.9623C16.3605 28.6742 17.4086 27.6261 18.6963 27.6261C19.9844 27.6261 21.0325 28.6742 21.0325 29.9623C21.0325 30.6938 20.6944 31.3476 20.1666 31.7763C21.5464 31.8276 22.6538 32.9663 22.6538 34.359ZM18.6963 31.7006C19.6548 31.7006 20.435 30.9208 20.435 29.9618C20.435 29.0028 19.6553 28.2231 18.6963 28.2231C17.7378 28.2231 16.958 29.0028 16.958 29.9618C16.958 30.9208 17.7373 31.7006 18.6963 31.7006ZM22.0563 34.359C22.0563 33.2631 21.1645 32.3713 20.0685 32.3713H17.3245C16.2285 32.3713 15.3368 33.2631 15.3368 34.359V36.3472H22.0568L22.0563 34.359ZM27.8357 22.0194V19.7324C27.8357 18.3398 28.9431 17.201 30.3233 17.1497C29.7955 16.721 29.4574 16.0672 29.4574 15.3358C29.4574 14.0476 30.5056 13 31.7932 13C33.0808 13 34.129 14.0481 34.129 15.3358C34.129 16.0672 33.7909 16.721 33.2631 17.1497C34.6433 17.2015 35.7507 18.3398 35.7507 19.7324V22.0194C35.7507 22.1842 35.6168 22.3182 35.452 22.3182H28.1344C27.9696 22.3182 27.8357 22.1842 27.8357 22.0194ZM31.7932 17.074C32.7517 17.074 33.5315 16.2943 33.5315 15.3358C33.5315 14.3773 32.7517 13.5975 31.7932 13.5975C30.8347 13.5975 30.0549 14.3773 30.0549 15.3358C30.0549 16.2943 30.8347 17.074 31.7932 17.074ZM28.4332 21.7207H35.1532V19.7324C35.1532 18.6365 34.2614 17.7447 33.165 17.7447H30.4209C29.325 17.7447 28.4327 18.6365 28.4327 19.7324L28.4332 21.7207ZM34.5168 31.9047C34.5024 31.7404 34.358 31.6184 34.1932 31.6334L32.8692 31.7499C32.7049 31.7643 32.5834 31.9092 32.5978 32.0735C32.6123 32.2378 32.7572 32.3598 32.9215 32.3449L33.518 32.2921C30.6689 35.5062 27.6101 36.6858 23.9315 36.0002C23.7696 35.9698 23.6133 36.0768 23.5829 36.2392C23.5525 36.4015 23.6596 36.5573 23.8219 36.5877C24.5389 36.7217 25.2335 36.7889 25.9077 36.7889C28.9167 36.7889 31.5293 35.4465 33.9846 32.6666L34.0388 33.2815C34.0523 33.4368 34.1827 33.5539 34.3361 33.5539C34.3451 33.5539 34.3535 33.5534 34.3625 33.5529C34.5268 33.5384 34.6483 33.3935 34.6339 33.2292L34.5168 31.9047ZM16.1867 18.7625C16.2002 18.9178 16.3306 19.0349 16.484 19.0349C16.4929 19.0349 16.5014 19.0344 16.5104 19.0339L17.8344 18.9173C17.9987 18.9029 18.1202 18.758 18.1057 18.5937C18.0913 18.4294 17.9469 18.3074 17.7821 18.3223L17.1856 18.3751C20.0342 15.161 23.0939 13.9814 26.7726 14.6671C26.9344 14.6974 27.0908 14.5904 27.1212 14.428C27.1284 14.3895 27.1279 14.3498 27.1198 14.3114C27.1117 14.273 27.0961 14.2366 27.0739 14.2043C27.0517 14.1719 27.0233 14.1442 26.9904 14.1228C26.9575 14.1014 26.9207 14.0867 26.8822 14.0795C22.967 13.3495 19.7245 14.5968 16.7195 18.0002L16.6652 17.3862C16.6508 17.2219 16.5059 17.0999 16.3416 17.1149C16.1773 17.1293 16.0558 17.2742 16.0702 17.4385L16.1867 18.7625Z"
        fill="#C34AC3"
    />
</svg>