<svg width="130" height="130" viewBox="0 0 130 130" fill="none" xmlns="http://www.w3.org/2000/svg">
<g id="transfer 1" opacity="0.4">
<g id="Group">
<path id="Vector" d="M113.691 87.7463L71.5824 50.3532L63.3541 58.5816L100.747 100.69C101.577 101.633 102.591 102.395 103.727 102.93C104.863 103.465 106.096 103.762 107.351 103.802C108.606 103.842 109.856 103.624 111.023 103.161C112.191 102.699 113.251 102.003 114.139 101.114C115.026 100.228 115.721 99.1682 116.181 98.0017C116.641 96.8352 116.857 95.5866 116.815 94.3332C116.773 93.0799 116.474 91.8485 115.937 90.7155C115.399 89.5824 114.635 88.5718 113.691 87.7463ZM63.3305 96.9649C63.3305 92.7447 59.9118 89.3496 55.7151 89.3496H24.6878C20.4911 89.3496 17.0724 92.7447 17.0724 96.9649V100.36H63.3305V96.9649ZM63.9671 102.718H16.4358C12.2391 102.718 8.82043 106.113 8.82043 110.333V116.345C8.82043 117.783 9.99928 118.962 11.4375 118.962H68.9654C70.4272 118.962 71.5824 117.783 71.5824 116.345V110.333C71.5824 106.113 68.1638 102.718 63.9671 102.718ZM31.2775 42.304L55.3426 18.2413L77.8256 40.7243L53.7606 64.787L31.2775 42.304ZM79.9617 39.5502C82.1779 41.7641 85.7593 41.7641 87.9732 39.5502C88.4997 39.0244 88.9174 38.4 89.2024 37.7127C89.4874 37.0253 89.6341 36.2886 89.6341 35.5445C89.6341 34.8004 89.4874 34.0636 89.2024 33.3763C88.9174 32.6889 88.4997 32.0645 87.9732 31.5387L64.5801 8.14563C64.0556 7.61836 63.4311 7.20118 62.7433 6.91858C62.0554 6.63598 61.318 6.49365 60.5743 6.49996C59.8307 6.49365 59.0933 6.63598 58.4054 6.91858C57.7175 7.20118 57.093 7.61836 56.5686 8.14563C54.3547 10.3619 54.3547 13.9456 56.5686 16.1571L79.9617 39.5502ZM44.5537 74.9582C45.0795 75.4847 45.7039 75.9024 46.3913 76.1874C47.0786 76.4724 47.8154 76.6191 48.5595 76.6191C49.3036 76.6191 50.0404 76.4724 50.7277 76.1874C51.415 75.9024 52.0394 75.4847 52.5652 74.9582C53.0914 74.4324 53.5088 73.8082 53.7936 73.121C54.0784 72.4339 54.225 71.6974 54.225 70.9536C54.225 70.2098 54.0784 69.4733 53.7936 68.7862C53.5088 68.099 53.0914 67.4748 52.5652 66.949L29.1721 43.5559C28.0985 42.5495 26.6756 42 25.2042 42.0238C23.7329 42.0475 22.3284 42.6426 21.2878 43.6831C20.2473 44.7237 19.6522 46.1282 19.6285 47.5995C19.6047 49.0709 20.1542 50.4938 21.1606 51.5674L44.5537 74.9582Z" fill="white"/>
</g>
</g>
</svg>
