<svg width="130" height="130" viewBox="0 0 130 130" fill="none" xmlns="http://www.w3.org/2000/svg">
<g id="transfer 2" opacity="0.4">
<g id="Group">
<path id="Vector" d="M74 2H56C31.187 2 11 30.26 11 65C11 99.74 31.187 128 56 128H74C98.813 128 119 99.74 119 65C119 30.26 98.813 2 74 2ZM74 119C54.1505 119 38 94.7765 38 65C38 35.2235 54.1505 11 74 11C93.8495 11 110 35.2235 110 65C110 94.7765 93.8495 119 74 119Z" fill="white"/>
<path id="Vector_2" d="M74 38C76.6701 38.3332 79.1047 39.6953 80.7856 41.7965C82.4665 43.8976 83.261 46.5719 83 49.25C83 50.4435 83.4741 51.5881 84.318 52.432C85.1619 53.2759 86.3065 53.75 87.5 53.75C88.6934 53.75 89.838 53.2759 90.6819 52.432C91.5259 51.5881 92 50.4435 92 49.25C92.1487 44.966 90.917 40.7475 88.4864 37.2166C86.0557 33.6857 82.5549 31.0293 78.5 29.639V29C78.5 27.8065 78.0259 26.6619 77.1819 25.818C76.338 24.9741 75.1934 24.5 74 24.5C72.8065 24.5 71.6619 24.9741 70.818 25.818C69.9741 26.6619 69.5 27.8065 69.5 29V29.639C65.4455 31.0299 61.945 33.6865 59.5145 37.2172C57.0839 40.748 55.8519 44.9661 56 49.25C56 59.861 63.857 64.37 70.166 67.988L73.6085 69.968C80.5835 73.982 83 75.629 83 80.75C83.261 83.4281 82.4665 86.1023 80.7856 88.2035C79.1047 90.3047 76.6701 91.6668 74 92C71.3299 91.6668 68.8953 90.3047 67.2143 88.2035C65.5334 86.1023 64.7389 83.4281 65 80.75C65 79.5565 64.5259 78.4119 63.6819 77.568C62.838 76.7241 61.6934 76.25 60.5 76.25C59.3065 76.25 58.1619 76.7241 57.318 77.568C56.4741 78.4119 56 79.5565 56 80.75C55.8512 85.034 57.0829 89.2525 59.5136 92.7834C61.9442 96.3143 65.4451 98.9707 69.5 100.361V101C69.5 102.193 69.9741 103.338 70.818 104.182C71.6619 105.026 72.8065 105.5 74 105.5C75.1934 105.5 76.338 105.026 77.1819 104.182C78.0259 103.338 78.5 102.193 78.5 101V100.361C82.5545 98.9701 86.0549 96.3135 88.4855 92.7828C90.916 89.252 92.148 85.0339 92 80.75C92 70.157 85.2455 66.278 78.095 62.165L74.648 60.176C68.3075 56.5445 65 54.407 65 49.25C64.7389 46.5719 65.5334 43.8976 67.2143 41.7965C68.8953 39.6953 71.3299 38.3332 74 38Z" fill="white"/>
</g>
</g>
</svg>
