<svg width="130" height="131" viewBox="0 0 130 131" fill="none" xmlns="http://www.w3.org/2000/svg">
<g id="transfer 2" opacity="0.4">
<path id="Exclude" fill-rule="evenodd" clip-rule="evenodd" d="M69.276 15.1366C66.8918 12.8301 63.1081 12.8301 60.7239 15.1366L53.8111 21.824C52.4478 23.1429 50.552 23.7589 48.6738 23.4932L39.1504 22.1462C35.8659 21.6816 32.8048 23.9057 32.2316 27.173L30.5698 36.6465C30.2421 38.5149 29.0705 40.1275 27.3948 41.0166L18.8985 45.5245C15.9682 47.0793 14.7989 50.6778 16.2557 53.6581L20.4797 62.299C21.3128 64.0033 21.3128 65.9966 20.4797 67.7008L16.2557 76.3418C14.7989 79.322 15.9682 82.9206 18.8985 84.4753L27.3948 88.9832C29.0705 89.8723 30.2421 91.4849 30.5698 93.3533L32.2316 102.827C32.8048 106.094 35.8659 108.318 39.1504 107.854L48.6738 106.507C50.552 106.241 52.4478 106.857 53.8111 108.176L60.7239 114.863C63.1081 117.17 66.8919 117.17 69.276 114.863L76.1888 108.176C77.5522 106.857 79.4479 106.241 81.3262 106.507L90.8495 107.854C94.134 108.318 97.1952 106.094 97.7683 102.827L99.4301 93.3533C99.7578 91.4849 100.929 89.8723 102.605 88.9832L111.101 84.4753C114.032 82.9206 115.201 79.322 113.744 76.3417L109.52 67.7008C108.687 65.9966 108.687 64.0033 109.52 62.299L113.744 53.6581C115.201 50.6778 114.032 47.0793 111.101 45.5245L102.605 41.0166C100.929 40.1275 99.7578 38.5149 99.4301 36.6465L97.7683 27.173C97.1952 23.9057 94.134 21.6816 90.8495 22.1462L81.3262 23.4932C79.4479 23.7589 77.5522 23.1429 76.1888 21.824L69.276 15.1366ZM83.9486 50.6878L60.3097 73.5194L50.4078 63.8884C49.85 63.3496 49.1875 63.0802 48.4205 63.0802C47.6534 63.0802 46.991 63.3496 46.4331 63.8884C45.8753 64.4272 45.5847 65.067 45.5615 65.8078C45.5382 66.5487 45.8056 67.1885 46.3634 67.7273L58.3572 79.3114C58.9151 79.8503 59.5659 80.1196 60.3097 80.1196C61.0535 80.1196 61.7043 79.8503 62.2622 79.3114L87.9233 54.5268C88.4812 53.988 88.7601 53.3482 88.7601 52.6073C88.7601 51.8665 88.4812 51.2266 87.9233 50.6878C87.3655 50.149 86.703 49.8797 85.936 49.8797C85.1689 49.8797 84.5065 50.149 83.9486 50.6878Z" fill="white"/>
</g>
</svg>
