<svg width="108" height="108" viewBox="0 0 108 108" fill="none" xmlns="http://www.w3.org/2000/svg">
<g id="DLT 1">
<g id="Group">
<path id="Vector" d="M57.164 53.0845V77.1894L78.0394 65.1371V41.0322L57.164 53.0845ZM33.1245 35.5518L53.9999 47.6044L74.8754 35.5518L53.9999 23.4993L33.1245 35.5518ZM50.8359 53.0845L29.9604 41.0322V65.1371L50.8359 77.1894V53.0845Z" fill="white"/>
<path id="Vector_2" d="M95.2859 18.1309C93.0108 18.1309 90.9265 18.9593 89.3147 20.328L54.1057 0L18.7696 20.4012C17.1467 18.989 15.0293 18.1309 12.714 18.1309C7.61947 18.1309 3.47498 22.2754 3.47498 27.37C3.47498 31.4299 6.10853 34.8842 9.75627 36.1205V76.815L44.7344 97.0095C44.6227 97.5866 44.5662 98.173 44.5658 98.7607C44.5658 103.855 48.7103 108 53.8049 108C58.8992 108 63.0437 103.855 63.0437 98.7607C63.0437 98.2722 63.0049 97.7925 62.9315 97.3242L98.4549 76.8148V36.049C101.993 34.753 104.525 31.3516 104.525 27.37C104.525 22.2756 100.38 18.1309 95.2859 18.1309ZM92.117 73.1561L59.8514 91.7846C58.2295 90.377 56.1157 89.5221 53.8047 89.5221C51.6084 89.5221 49.5897 90.2937 48.0024 91.5783L16.0943 73.1561V35.9657C19.521 34.6134 21.9529 31.2715 21.9529 27.37C21.9529 26.8855 21.9149 26.4098 21.8428 25.9453L54.1057 7.31827L86.1768 25.8346C86.0909 26.3419 86.0474 26.8555 86.0469 27.37C86.0469 31.3516 88.5788 34.753 92.117 36.049V73.1561Z" fill="white"/>
</g>
</g>
</svg>
