<svg width="130" height="131" viewBox="0 0 130 131" fill="none" xmlns="http://www.w3.org/2000/svg">
<g id="transfer 2" opacity="0.4">
<g id="Group">
<path id="Vector" fill-rule="evenodd" clip-rule="evenodd" d="M43.8359 73.8579C46.3024 70.7287 47.7745 66.7785 47.7745 62.4847C47.7745 52.3296 39.5423 44.0974 29.3873 44.0974C19.2322 44.0974 11 52.3296 11 62.4847C11 72.6398 19.2322 80.8719 29.3873 80.8719C33.8205 80.8719 37.887 79.3029 41.0625 76.6902C41.1071 76.6532 41.1638 76.634 41.2217 76.6361C41.2795 76.6382 41.3346 76.6616 41.3764 76.7017L48.7566 83.7465C48.7802 83.7682 48.7988 83.7947 48.8115 83.8242C48.8241 83.8537 48.8303 83.8855 48.8298 83.9176V92.1495C48.8298 92.2336 48.8699 92.3056 48.9411 92.3501C49.0123 92.3947 49.0949 92.399 49.1701 92.362L52.2334 90.8677C52.2736 90.8488 52.3076 90.8186 52.3311 90.7809C52.3547 90.7432 52.3669 90.6995 52.3663 90.655V83.0563C52.3663 82.5522 52.1554 82.0974 51.8169 81.7753L51.8186 81.7735L43.8588 74.1756C43.8159 74.1351 43.7897 74.08 43.7854 74.0212C43.7812 73.9624 43.7992 73.9041 43.8359 73.8579ZM34.9614 120.537V94.8345C34.96 94.7868 34.9405 94.7413 34.9067 94.7075C34.8729 94.6737 34.8274 94.6542 34.7797 94.6528H28.7369C28.6891 94.6542 28.6437 94.6737 28.6099 94.7075C28.5761 94.7413 28.5565 94.7868 28.5552 94.8345V120.537C28.5552 120.633 28.6405 120.719 28.7369 120.719H34.7797C34.8275 120.717 34.8729 120.698 34.9067 120.664C34.9406 120.63 34.9601 120.585 34.9614 120.537ZM45.9956 97.0227C47.7081 96.6469 50.9553 95.0666 54.0388 93.5872C59.2995 91.063 60.63 90.7816 64.255 91.4833C64.2716 91.4864 64.2877 91.4913 64.3031 91.4982C64.5164 91.5892 64.7455 91.6375 64.9773 91.6401C64.9928 91.6403 65.0083 91.642 65.0234 91.6452L66.5328 91.9638C69.1546 92.5354 78.3135 94.2391 78.3135 97.1397C78.3135 97.6127 78.2981 97.8764 78.1479 98.3456C77.907 99.0979 77.8527 98.9411 77.5738 99.2529C76.7392 100.186 75.5268 100.672 74.248 100.569L58.7536 99.3244C58.2901 99.2974 57.8344 99.4533 57.4844 99.7585C57.1345 100.064 56.9181 100.494 56.8818 100.957C56.8455 101.42 56.9922 101.878 57.2903 102.235C57.5884 102.591 58.0142 102.815 58.4763 102.861L73.9706 104.106C75.1611 104.202 76.3209 104.009 77.3762 103.589C78.2392 103.245 79.0315 102.745 79.7136 102.115C79.7315 102.098 79.7519 102.085 79.774 102.074C79.8336 102.046 79.8916 102.015 79.9477 101.981L99.2569 90.7698C100.266 90.1841 101.431 90.0545 102.497 90.317C106.141 91.2153 106.835 95.8864 103.637 97.7652C94.2126 103.303 72.717 116.856 67.3387 116.546C57.7549 115.995 48.1734 114.25 38.7822 115.613C38.7487 115.618 38.7143 115.616 38.6816 115.607C38.649 115.597 38.6188 115.58 38.5935 115.558C38.5674 115.536 38.5465 115.508 38.5324 115.477C38.5182 115.447 38.5112 115.413 38.5117 115.379V98.1923C38.5117 98.067 38.6091 97.9635 38.7344 97.9562C41.1713 97.812 43.627 97.5422 45.9956 97.0227ZM82.2252 62.4847C82.2252 66.7785 83.6973 70.7284 86.1639 73.8579C86.2004 73.9041 86.2184 73.9623 86.2143 74.0211C86.2101 74.0799 86.1842 74.135 86.1415 74.1756L78.2778 81.6819C78.2739 81.6855 78.27 81.6891 78.2659 81.6924C78.0657 81.8589 77.9047 82.0674 77.7942 82.3031C77.6838 82.5388 77.6266 82.796 77.6269 83.0563V91.7557C77.6269 91.8503 77.6787 91.9311 77.7646 91.9706C78.834 92.4629 79.876 93.0612 80.7755 93.8094C80.8477 93.8696 80.9421 93.8817 81.0272 93.8419C81.1123 93.8021 81.1633 93.7218 81.1636 93.628L81.1772 83.9106C81.1768 83.8785 81.1831 83.8468 81.1957 83.8174C81.2083 83.7879 81.227 83.7615 81.2504 83.7397L88.6236 76.7015C88.6654 76.6614 88.7204 76.638 88.7783 76.6359C88.8362 76.6337 88.8929 76.653 88.9375 76.6899C92.1128 79.3027 96.1795 80.8717 100.613 80.8717C110.768 80.8717 119 72.6395 119 62.4844C119 52.3294 110.768 44.0972 100.613 44.0972C90.4577 44.0972 82.2252 52.3296 82.2252 62.4847ZM93.117 71.0921V58.4748C93.117 58.3444 93.2232 58.2382 93.3536 58.2382H96.62C96.7503 58.2382 96.8566 58.132 96.8566 58.0016V53.8747C96.8566 52.2747 98.1656 50.9657 99.7656 50.9657C101.366 50.9657 102.675 52.2747 102.675 53.8747V58.0016C102.675 58.132 102.781 58.2382 102.911 58.2382H104.856C108.456 58.2382 111.402 61.1837 111.402 64.7836C111.402 68.3837 108.456 71.329 104.856 71.329H93.3533C93.2906 71.3288 93.2305 71.3037 93.1862 71.2593C93.142 71.215 93.1171 71.1548 93.117 71.0921ZM66.9863 48.6678C66.9282 48.6739 66.8744 48.7013 66.8353 48.7448C66.7962 48.7882 66.7747 48.8447 66.7749 48.9031V88.5909C66.7749 88.6644 66.7449 88.7279 66.6878 88.7744C66.6307 88.821 66.5627 88.8376 66.4907 88.8227L65.296 88.5766L65.2839 88.5746L63.4254 88.2914C63.3694 88.2831 63.3183 88.2548 63.2814 88.2118C63.2445 88.1688 63.2243 88.114 63.2246 88.0574V48.9029C63.2247 48.8444 63.2032 48.788 63.1641 48.7446C63.1251 48.7011 63.0713 48.6737 63.0132 48.6676C53.7926 47.6769 46.6125 39.8711 46.6125 30.3873C46.6125 20.2322 54.8447 12 64.9997 12C75.1548 12 83.387 20.2322 83.387 30.3873C83.3873 39.8713 76.2071 47.6772 66.9863 48.6678ZM75.2988 30.5924C75.374 30.5488 75.4171 30.4743 75.4171 30.3875C75.4171 30.3007 75.374 30.2259 75.2988 30.1826L60.0964 21.4056C60.0211 21.3623 59.935 21.3623 59.8598 21.4056C59.7845 21.4488 59.7415 21.5236 59.7415 21.6104V39.1644C59.7415 39.2512 59.7845 39.3259 59.8598 39.3692C59.935 39.4125 60.0211 39.4128 60.0964 39.3692L75.2988 30.5924ZM33.3992 54.2902C36.3457 54.2902 38.7342 56.6788 38.7342 59.6253C38.7342 64.4305 33.7281 69.8994 29.4847 71.8218C29.4541 71.8362 29.4208 71.8437 29.387 71.8437C29.3532 71.8437 29.3199 71.8362 29.2894 71.8218C25.0459 69.8994 20.0401 64.4307 20.0401 59.6253C20.0401 56.6788 22.4286 54.2902 25.3751 54.2902C26.0925 54.2894 26.8027 54.4337 27.4629 54.7145C28.1231 54.9953 28.7196 55.4068 29.2166 55.9242C29.2629 55.9723 29.3203 55.9967 29.387 55.9967C29.4537 55.9967 29.5111 55.9723 29.5574 55.9242C30.0544 55.4068 30.651 54.9953 31.3112 54.7145C31.9715 54.4336 32.6817 54.2893 33.3992 54.2902Z" fill="white"/>
</g>
</g>
</svg>
