<svg width="108" height="108" viewBox="0 0 108 108" fill="none" xmlns="http://www.w3.org/2000/svg">
<g id="KYC 1" clip-path="url(#clip0_8863_48007)">
<g id="Group">
<path id="Vector" d="M39.42 78.3C39.42 81 39.96 83.7 40.5 86.4H0C0 65.34 16.74 48.6 37.8 48.6C43.2 48.6 48.06 49.68 52.92 51.84C44.82 57.78 39.42 67.5 39.42 78.3Z" fill="white"/>
<path id="Vector_2" d="M37.8 43.2C49.7293 43.2 59.4 33.5294 59.4 21.6C59.4 9.67065 49.7293 0 37.8 0C25.8706 0 16.2 9.67065 16.2 21.6C16.2 33.5294 25.8706 43.2 37.8 43.2Z" fill="white"/>
<path id="Vector_3" d="M106.38 98.82L92.88 89.1C94.5 85.86 95.58 82.08 95.58 78.3C95.58 65.88 85.32 55.62 72.9 55.62C60.48 55.62 50.22 65.88 50.22 78.3C50.22 90.72 60.48 100.98 72.9 100.98C78.84 100.98 84.78 98.28 88.56 94.5L98.82 106.38C99.9 107.46 103.68 109.08 106.38 106.38C108.54 104.22 108.54 100.98 106.38 98.82ZM72.9 88.02C67.5 88.02 63.18 83.7 63.18 78.3C63.18 72.9 67.5 68.58 72.9 68.58C78.3 68.58 82.62 72.9 82.62 78.3C82.62 83.7 78.3 88.02 72.9 88.02Z" fill="white"/>
</g>
</g>
<defs>
<clipPath id="clip0_8863_48007">
<rect width="108" height="108" fill="white"/>
</clipPath>
</defs>
</svg>
