<svg width="25" height="24" viewBox="0 0 25 24" fill="none" xmlns="http://www.w3.org/2000/svg">
<g id="warning">
<mask id="mask0_1712_34770" style="mask-type:alpha" maskUnits="userSpaceOnUse" x="0" y="0" width="25" height="24">
<rect id="Bounding box" x="0.5" width="24" height="24" fill="#D9D9D9"/>
</mask>
<g mask="url(#mask0_1712_34770)">
<path id="warning_2" d="M3.22479 21C3.04146 21 2.87479 20.9542 2.72479 20.8625C2.57479 20.7708 2.45812 20.65 2.37479 20.5C2.29146 20.35 2.24562 20.1875 2.23729 20.0125C2.22896 19.8375 2.27479 19.6667 2.37479 19.5L11.6248 3.5C11.7248 3.33333 11.854 3.20833 12.0123 3.125C12.1706 3.04167 12.3331 3 12.4998 3C12.6665 3 12.829 3.04167 12.9873 3.125C13.1456 3.20833 13.2748 3.33333 13.3748 3.5L22.6248 19.5C22.7248 19.6667 22.7706 19.8375 22.7623 20.0125C22.754 20.1875 22.7081 20.35 22.6248 20.5C22.5415 20.65 22.4248 20.7708 22.2748 20.8625C22.1248 20.9542 21.9581 21 21.7748 21H3.22479ZM4.94979 19H20.0498L12.4998 6L4.94979 19ZM12.4998 18C12.7831 18 13.0206 17.9042 13.2123 17.7125C13.404 17.5208 13.4998 17.2833 13.4998 17C13.4998 16.7167 13.404 16.4792 13.2123 16.2875C13.0206 16.0958 12.7831 16 12.4998 16C12.2165 16 11.979 16.0958 11.7873 16.2875C11.5956 16.4792 11.4998 16.7167 11.4998 17C11.4998 17.2833 11.5956 17.5208 11.7873 17.7125C11.979 17.9042 12.2165 18 12.4998 18ZM12.4998 15C12.7831 15 13.0206 14.9042 13.2123 14.7125C13.404 14.5208 13.4998 14.2833 13.4998 14V11C13.4998 10.7167 13.404 10.4792 13.2123 10.2875C13.0206 10.0958 12.7831 10 12.4998 10C12.2165 10 11.979 10.0958 11.7873 10.2875C11.5956 10.4792 11.4998 10.7167 11.4998 11V14C11.4998 14.2833 11.5956 14.5208 11.7873 14.7125C11.979 14.9042 12.2165 15 12.4998 15Z" fill="#FE9417" fill-opacity="0.984375"/>
</g>
</g>
</svg>
